<svg width="150" height="40" viewBox="0 0 150 40" fill="none" xmlns="http://www.w3.org/2000/svg">
<path d="M150 40H1.56159e-06V0H150L150 40Z" fill="#102132"/>
<path d="M31.4102 23.6292C31.4102 23.7737 31.3688 23.8471 31.2884 23.8471C30.9446 23.8471 30.5278 23.8325 30.0378 23.8006C29.5673 23.7688 29.1772 23.7541 28.8677 23.7541C28.5581 23.7541 28.1778 23.7688 27.7268 23.8006C27.2563 23.8325 26.8492 23.8471 26.5055 23.8471C26.4128 23.8471 26.3665 23.7737 26.3665 23.6292C26.3665 23.4994 26.4079 23.4284 26.4884 23.4186C27.0881 23.3452 27.4952 23.235 27.7121 23.0832C27.9291 22.9314 28.0388 22.6473 28.0388 22.2262V22.1013L27.717 14.5475L24.0165 23.9745C23.9848 24.0577 23.9141 24.0993 23.802 24.0993C23.685 24.0993 23.6143 24.0577 23.5948 23.9745L20.1087 14.9221L19.5554 22.1087C19.5456 22.1968 19.5407 22.2752 19.5407 22.3437C19.5407 22.6914 19.6578 22.9412 19.8942 23.093C20.1283 23.2448 20.55 23.3525 21.1521 23.4211C21.2228 23.4309 21.2594 23.5019 21.2594 23.6366C21.2594 23.7786 21.2131 23.852 21.1204 23.852C20.8547 23.852 20.4915 23.8374 20.0307 23.8055C19.6017 23.7737 19.2702 23.759 19.0386 23.759C18.785 23.759 18.4364 23.7737 17.9976 23.8055C17.5735 23.8374 17.2444 23.852 17.0152 23.852C16.9445 23.852 16.908 23.7786 16.908 23.6341C16.908 23.5043 16.9543 23.4333 17.0469 23.4235C17.6929 23.3452 18.139 23.2228 18.3852 23.0563C18.6339 22.8898 18.7753 22.5714 18.8119 22.1038L19.609 14.7605C19.6139 14.6675 19.6163 14.5842 19.6163 14.5108C19.6163 14.1729 19.4993 13.928 19.2628 13.7762C19.0264 13.6244 18.5998 13.5117 17.9806 13.4334C17.9099 13.4334 17.8733 13.3624 17.8733 13.2179C17.8733 13.1665 17.8879 13.1175 17.9196 13.0734C17.9513 13.0294 17.9806 13.0049 18.0123 13.0049C18.2024 13.0049 18.4706 13.0196 18.8192 13.0514C19.1166 13.0832 19.3335 13.0979 19.4725 13.0979C19.6504 13.0979 19.9064 13.0832 20.2404 13.0514C20.5841 13.0196 20.8498 13.0049 21.0375 13.0049L24.331 21.663L27.7316 13.0049C27.9364 13.0049 28.2021 13.0196 28.5337 13.0514C28.8335 13.0832 29.07 13.0979 29.2431 13.0979C29.4576 13.0979 29.716 13.0832 30.0183 13.0514C30.3303 13.0196 30.5985 13.0049 30.8252 13.0049C30.9178 13.0049 30.9641 13.0759 30.9641 13.2204C30.9641 13.3648 30.9227 13.4358 30.8422 13.4358C30.2426 13.5093 29.8354 13.6219 29.6185 13.7713C29.4015 13.9231 29.2918 14.2071 29.2918 14.6283V14.7605L29.6453 22.1038C29.6599 22.4686 29.716 22.7233 29.8111 22.8677C29.9061 23.0122 30.0695 23.1297 30.2986 23.2154C30.5278 23.3011 30.8593 23.3697 31.2884 23.4211C31.3688 23.4309 31.4102 23.4994 31.4102 23.6292Z" fill="white"/>
<path d="M36.6812 24.0088C36.4081 24.0088 36.1692 23.9403 35.9668 23.8032C35.7645 23.666 35.6255 23.4799 35.5524 23.2449C35.0258 23.7934 34.3383 24.0676 33.4898 24.0676C33.0486 24.0676 32.6853 23.928 32.4074 23.6513C32.127 23.3747 31.988 23.0294 31.988 22.6156C31.988 21.5921 33.1826 20.7645 35.5694 20.1303L35.6133 18.9623V18.9256C35.6133 18.5657 35.5256 18.2816 35.3525 18.0686C35.1769 17.8556 34.9453 17.7503 34.6552 17.7503C34.3651 17.7503 34.1188 17.8213 33.9189 17.9633C33.7166 18.1053 33.6142 18.2841 33.6093 18.4971C33.6044 18.8154 33.5215 19.0652 33.3631 19.2464C33.2022 19.4251 32.99 19.5157 32.7243 19.5157C32.5683 19.5157 32.4391 19.4692 32.3415 19.3737C32.244 19.2782 32.1953 19.1509 32.1953 18.9917C32.1953 18.6073 32.539 18.2057 33.2265 17.7821C33.914 17.361 34.5528 17.1504 35.1428 17.1504C35.6743 17.1504 36.1034 17.3095 36.4325 17.6303C36.7616 17.9486 36.9274 18.3796 36.9274 18.9183V19.0089L36.8177 22.3928V22.4442C36.8177 22.9682 36.9835 23.2302 37.3199 23.2302C37.4832 23.2302 37.671 23.1298 37.888 22.9315L37.9392 22.9168C37.9782 22.9168 38.0147 22.9437 38.0489 22.9951C38.083 23.0465 38.1001 23.1029 38.1001 23.1641C38.1001 23.3085 37.9513 23.4848 37.6539 23.6954C37.3516 23.906 37.0298 24.0088 36.6812 24.0088ZM35.5524 20.6347C34.1237 20.9653 33.4069 21.5113 33.4069 22.2703C33.4069 22.9804 33.6751 23.3355 34.2139 23.3355C34.4723 23.3355 34.7283 23.2694 34.9819 23.1371C35.233 23.0049 35.4037 22.8409 35.4914 22.645L35.5524 20.6347Z" fill="white"/>
<path d="M43.4828 17.9023C43.4828 18.103 43.4219 18.272 43.3024 18.4116C43.1829 18.5511 43.0367 18.6221 42.8636 18.6221C42.6466 18.6221 42.4345 18.5487 42.2224 18.4042C42.0566 18.2891 41.9103 18.2328 41.7884 18.2328C41.469 18.2328 41.1399 18.4238 40.801 18.8009V22.1701C40.801 22.6035 40.8742 22.9071 41.0229 23.0785C41.1692 23.2499 41.4837 23.3699 41.9664 23.4336C42.0444 23.4434 42.0834 23.5119 42.0834 23.6368C42.0834 23.7764 42.0444 23.8474 41.9664 23.8474C41.764 23.8474 41.4788 23.8327 41.1106 23.8033C40.7035 23.7739 40.3817 23.7592 40.1403 23.7592C39.8965 23.7592 39.5991 23.7739 39.2529 23.8033C38.9384 23.8327 38.68 23.8474 38.4801 23.8474C38.402 23.8474 38.363 23.7764 38.363 23.6368C38.363 23.5119 38.402 23.4458 38.4801 23.4336C38.9067 23.3797 39.1822 23.2769 39.3017 23.1275C39.4211 22.9781 39.4821 22.6598 39.4821 22.1701V19.4057C39.4821 19.0066 39.4309 18.7446 39.3309 18.6221C39.231 18.4973 39.0067 18.4165 38.6556 18.3748C38.5776 18.3748 38.5386 18.3087 38.5386 18.1765C38.5386 18.0541 38.5776 17.9929 38.6556 17.9929C39.1432 17.868 39.543 17.7309 39.8575 17.5766C40.172 17.4248 40.3792 17.2926 40.4768 17.1848C40.5353 17.1261 40.5938 17.0942 40.6523 17.0942C40.7888 17.0942 40.8571 17.1334 40.8571 17.2142L40.7986 18.1569C41.1911 17.7872 41.53 17.5276 41.8128 17.3783C42.0956 17.2289 42.376 17.153 42.6563 17.153C42.8831 17.153 43.0757 17.2289 43.239 17.3783C43.4023 17.5276 43.4828 17.7039 43.4828 17.9023Z" fill="white"/>
<path d="M55.5904 23.6368C55.5904 23.7764 55.5514 23.8474 55.4734 23.8474C55.2759 23.8474 55.037 23.8327 54.7518 23.8033C54.4373 23.7739 54.1594 23.7592 53.9132 23.7592C53.6743 23.7592 53.3964 23.7739 53.0844 23.8033C52.8016 23.8327 52.5578 23.8474 52.3579 23.8474C52.2799 23.8474 52.2409 23.7764 52.2409 23.6368C52.2409 23.5119 52.2799 23.4458 52.3579 23.4336C52.6919 23.3944 52.9088 23.2965 53.0112 23.1422C53.1136 22.9879 53.1648 22.6623 53.1648 22.1701V19.6701C53.1648 19.107 53.06 18.6956 52.8479 18.4385C52.6383 18.1814 52.3067 18.0541 51.8557 18.0541C51.2634 18.0541 50.7734 18.2598 50.3858 18.6687V22.1726C50.3858 22.6672 50.4394 22.9904 50.5466 23.1447C50.6539 23.2989 50.8757 23.3969 51.2073 23.436C51.2853 23.4458 51.3243 23.5144 51.3243 23.6393C51.3243 23.7788 51.2853 23.8498 51.2048 23.8498C51.0074 23.8498 50.7782 23.8351 50.5174 23.8058C50.2322 23.7764 49.9713 23.7617 49.7349 23.7617C49.4887 23.7617 49.2205 23.7764 48.9304 23.8058C48.6696 23.8351 48.4404 23.8498 48.243 23.8498C48.1649 23.8498 48.1235 23.7788 48.1235 23.6393C48.1235 23.5144 48.1625 23.4483 48.243 23.436C48.5818 23.3969 48.8061 23.2989 48.9109 23.1447C49.0157 22.9904 49.0694 22.6647 49.0694 22.1726V19.6701C49.0694 19.1119 48.9597 18.7029 48.7451 18.4434C48.5282 18.1839 48.1942 18.0541 47.7408 18.0541C47.4556 18.0541 47.202 18.1104 46.9826 18.2181C46.7632 18.3283 46.5292 18.5218 46.2757 18.8009V22.1701C46.2757 22.6647 46.3293 22.9879 46.4341 23.1422C46.5414 23.2965 46.7632 23.3944 47.1021 23.4336C47.1801 23.4434 47.2191 23.5119 47.2191 23.6368C47.2191 23.7764 47.1801 23.8474 47.1021 23.8474C46.8997 23.8474 46.656 23.8327 46.3659 23.8033C46.0465 23.7739 45.7686 23.7592 45.5273 23.7592C45.2811 23.7592 45.0032 23.7739 44.6887 23.8033C44.4083 23.8327 44.167 23.8474 43.9671 23.8474C43.8891 23.8474 43.8501 23.7764 43.8501 23.6368C43.8501 23.5119 43.8891 23.4458 43.9671 23.4336C44.384 23.3797 44.6546 23.2769 44.774 23.1275C44.8935 22.9781 44.9544 22.6598 44.9544 22.1701V19.4057C44.9544 19.0066 44.9032 18.7446 44.8033 18.6221C44.7033 18.4973 44.4839 18.4165 44.1451 18.3748C44.0671 18.3748 44.0281 18.3087 44.0281 18.1765C44.0281 18.0541 44.0671 17.9929 44.1451 17.9929C44.6302 17.868 45.0349 17.7284 45.3566 17.5693C45.6809 17.4126 45.8832 17.2828 45.9661 17.1848C46.0148 17.1261 46.0685 17.0942 46.127 17.0942C46.2635 17.0942 46.3317 17.1334 46.3317 17.2142L46.2732 18.1569C46.9826 17.4885 47.6433 17.153 48.2551 17.153C49.1912 17.153 49.8275 17.5178 50.1639 18.2451C50.9074 17.5178 51.6363 17.153 52.3457 17.153C53.0161 17.153 53.5402 17.3464 53.9132 17.7358C54.2886 18.1251 54.4763 18.6491 54.4763 19.3077V22.1677C54.4763 22.6574 54.5373 22.9757 54.6567 23.1251C54.7762 23.2744 55.0468 23.3773 55.4636 23.4311C55.5514 23.4434 55.5904 23.5119 55.5904 23.6368Z" fill="white"/>
<path d="M63.0549 20.6567C63.0549 21.6508 62.7356 22.4662 62.0993 23.1077C61.4631 23.7493 60.6367 24.07 59.625 24.07C58.6109 24.07 57.7845 23.7493 57.1458 23.1053C56.5071 22.4613 56.1877 21.6459 56.1877 20.6567C56.1877 19.6528 56.5095 18.8203 57.1531 18.1543C57.7967 17.4883 58.6206 17.1553 59.625 17.1553C60.6342 17.1553 61.4582 17.4883 62.0969 18.1494C62.7356 18.813 63.0549 19.6479 63.0549 20.6567ZM61.5679 20.642C61.5679 19.7287 61.3948 18.999 61.0487 18.453C60.7025 17.907 60.2271 17.6327 59.6226 17.6327C59.0229 17.6327 58.5499 17.907 58.2013 18.4555C57.8527 19.0039 57.6772 19.7336 57.6772 20.642C57.6772 21.5456 57.8503 22.263 58.194 22.7943C58.5378 23.3257 59.0156 23.5926 59.6226 23.5926C60.232 23.5926 60.7074 23.3281 61.0511 22.8041C61.3948 22.2752 61.5679 21.5554 61.5679 20.642Z" fill="white"/>
<path d="M71.5604 23.6368C71.5604 23.7764 71.5214 23.8474 71.4434 23.8474C71.2459 23.8474 71.007 23.8327 70.7218 23.8033C70.4073 23.7739 70.1319 23.7592 69.8905 23.7592C69.6467 23.7592 69.364 23.7739 69.0446 23.8033C68.7545 23.8327 68.5132 23.8474 68.3182 23.8474C68.2401 23.8474 68.2011 23.7764 68.2011 23.6368C68.2011 23.5119 68.2401 23.4458 68.3182 23.4336C68.657 23.3944 68.8788 23.2965 68.9861 23.1422C69.0909 22.9879 69.1446 22.6623 69.1446 22.1701V19.6701C69.1446 19.1119 69.0373 18.7029 68.8203 18.4434C68.6034 18.1839 68.2694 18.0541 67.8184 18.0541C67.5332 18.0541 67.2821 18.1104 67.0627 18.2181C66.8433 18.3283 66.6093 18.5218 66.3582 18.8009V22.1701C66.3582 22.6647 66.4118 22.9879 66.5166 23.1422C66.6215 23.2965 66.8457 23.3944 67.1846 23.4336C67.2626 23.4434 67.3016 23.5119 67.3016 23.6368C67.3016 23.7764 67.2626 23.8474 67.1846 23.8474C66.9823 23.8474 66.7385 23.8327 66.4484 23.8033C66.129 23.7739 65.8487 23.7592 65.6074 23.7592C65.3709 23.7592 65.0954 23.7739 64.781 23.8033C64.4909 23.8327 64.2446 23.8474 64.0447 23.8474C63.9667 23.8474 63.9253 23.7764 63.9253 23.6368C63.9253 23.5119 63.9643 23.4458 64.0447 23.4336C64.4665 23.3797 64.7395 23.2744 64.8614 23.1226C64.9833 22.9708 65.0467 22.6525 65.0467 22.1701V19.4057C65.0467 19.0066 64.9955 18.7446 64.8955 18.6221C64.7956 18.4973 64.5689 18.4165 64.2203 18.3748C64.1423 18.3748 64.1033 18.3087 64.1033 18.1765C64.1033 18.0541 64.1423 17.9929 64.2203 17.9929C64.7054 17.868 65.1125 17.7284 65.4367 17.5693C65.7609 17.4126 65.9657 17.2828 66.0486 17.1848C66.0973 17.1261 66.151 17.0942 66.2095 17.0942C66.346 17.0942 66.4167 17.1334 66.4167 17.2142L66.3582 18.1569C67.0651 17.4885 67.7209 17.153 68.3303 17.153C68.9983 17.153 69.5175 17.3464 69.893 17.7358C70.2684 18.1251 70.4561 18.6491 70.4561 19.3077V22.1677C70.4561 22.6574 70.517 22.9757 70.6365 23.1251C70.7559 23.2744 71.0265 23.3773 71.4434 23.4311C71.5214 23.4434 71.5604 23.5119 71.5604 23.6368Z" fill="white"/>
<path d="M76.4485 13.1494L73.2645 23.9794C73.2401 24.0798 73.0889 24.1287 72.811 24.1287C72.5672 24.1287 72.4453 24.0798 72.4453 23.9794L75.6293 13.1494C75.6537 13.049 75.8049 13 76.0828 13C76.3266 13 76.4485 13.049 76.4485 13.1494Z" fill="white"/>
<path d="M88.8051 23.6292C88.8051 23.7737 88.7637 23.8472 88.6832 23.8472C88.3395 23.8472 87.9299 23.8325 87.4546 23.8006C86.9987 23.7688 86.616 23.7541 86.304 23.7541C86.0017 23.7541 85.5848 23.7688 85.0534 23.8006C84.4951 23.8325 84.0441 23.8472 83.7029 23.8472C83.62 23.8472 83.581 23.7737 83.581 23.6292C83.581 23.4995 83.6175 23.4285 83.6882 23.4187C84.3781 23.3354 84.7243 23.1665 84.7243 22.9118C84.7243 22.7673 84.6121 22.5788 84.3854 22.3511L81.3382 19.2022C81.1749 19.0357 81.0335 18.928 80.9116 18.8741C80.7922 18.8227 80.6264 18.7958 80.4167 18.7958V22.1013C80.4167 22.4588 80.4631 22.7135 80.5508 22.8604C80.641 23.0097 80.7995 23.1248 81.0262 23.2105C81.2529 23.2962 81.5796 23.3648 82.0062 23.4162C82.0939 23.426 82.1378 23.497 82.1378 23.6268C82.1378 23.7713 82.0964 23.8447 82.0159 23.8447C81.6722 23.8447 81.2626 23.83 80.7873 23.7982C80.3314 23.7664 79.9462 23.7517 79.6318 23.7517C79.3246 23.7517 78.9443 23.7664 78.4909 23.7982C78.0155 23.83 77.606 23.8447 77.2623 23.8447C77.1794 23.8447 77.1404 23.7713 77.1404 23.6268C77.1404 23.497 77.1818 23.426 77.2623 23.4162C77.8815 23.3428 78.3032 23.2252 78.525 23.0661C78.7469 22.9045 78.859 22.5813 78.859 22.0989V14.7581C78.859 14.3932 78.8127 14.1386 78.7249 13.9892C78.6372 13.8399 78.4787 13.7248 78.252 13.6391C78.0253 13.5534 77.6962 13.4848 77.2623 13.4334C77.1794 13.4334 77.1404 13.3624 77.1404 13.2179C77.1404 13.0735 77.1818 13.0024 77.2623 13.0024C77.606 13.0024 78.0155 13.0171 78.4909 13.049C78.9419 13.0808 79.3222 13.0955 79.6318 13.0955C79.9462 13.0955 80.3314 13.0808 80.7873 13.049C81.2626 13.0171 81.6722 13.0024 82.0159 13.0024C82.0988 13.0024 82.1378 13.0735 82.1378 13.2179C82.1378 13.3624 82.0964 13.4334 82.0159 13.4334C81.5796 13.4848 81.2505 13.5534 81.0262 13.6391C80.8019 13.7248 80.6435 13.8423 80.5533 13.9892C80.4631 14.1386 80.4192 14.3932 80.4192 14.7581V18.2963C80.6191 18.2963 80.78 18.2693 80.9043 18.2179C81.0262 18.1665 81.1724 18.0563 81.3407 17.8898L84.7121 14.5132C84.9876 14.2463 85.1265 14.0529 85.1265 13.9329C85.1265 13.7909 85.0607 13.6856 84.9315 13.6146C84.7998 13.5436 84.539 13.4824 84.1441 13.4309C84.0612 13.4309 84.0222 13.3599 84.0222 13.2155C84.0222 13.071 84.0685 13 84.1612 13C84.4025 13 84.7194 13.0147 85.1143 13.0465C85.5336 13.0784 85.8822 13.093 86.1577 13.093C86.4332 13.093 86.7403 13.0759 87.0792 13.0392C87.3595 13.0122 87.6008 13 87.8007 13C87.8714 13 87.908 13.071 87.908 13.2155C87.908 13.3599 87.8666 13.4309 87.7861 13.4309C87.2937 13.4946 86.9085 13.595 86.6282 13.737C86.3478 13.879 86.009 14.141 85.6141 14.523L82.0939 17.9069L86.4478 22.405C86.7501 22.7257 87.0499 22.9559 87.3449 23.0979C87.6398 23.2399 88.0811 23.3477 88.6661 23.4187C88.7588 23.4309 88.8051 23.4995 88.8051 23.6292Z" fill="white"/>
<path d="M94.0493 19.5258C94.0493 19.6678 93.9591 19.7388 93.7787 19.7388H89.6731C89.6438 20.0131 89.6268 20.2971 89.6268 20.5909C89.6268 21.4088 89.8169 22.0356 90.1997 22.4739C90.5825 22.9122 91.1261 23.1326 91.8307 23.1326C92.1842 23.1326 92.5426 23.0371 92.901 22.8436C93.2618 22.6502 93.5495 22.4053 93.7713 22.1066L93.8079 22.0919C93.8518 22.0919 93.8957 22.1188 93.9396 22.1752C93.981 22.2315 94.003 22.2976 94.003 22.3735C94.003 22.4788 93.8421 22.7016 93.5227 23.0395C93.2033 23.3774 92.8547 23.6345 92.4817 23.8108C92.1062 23.9896 91.7137 24.0777 91.3041 24.0777C90.4045 24.0777 89.6487 23.7422 89.0343 23.0738C88.42 22.4053 88.1128 21.5826 88.1128 20.6081C88.1128 19.614 88.4127 18.7717 89.0148 18.0812C89.617 17.3907 90.3801 17.0454 91.3041 17.0454C92.0794 17.0454 92.7303 17.3025 93.2569 17.8167C93.786 18.3309 94.0493 18.9014 94.0493 19.5258ZM92.6865 18.8549C92.6865 18.4754 92.5572 18.1595 92.3012 17.9073C92.0453 17.6551 91.7137 17.5302 91.309 17.5302C90.9238 17.5302 90.5898 17.6943 90.3094 18.0199C90.0266 18.348 89.8364 18.7765 89.7365 19.3103L91.8185 19.2491C92.133 19.2442 92.3573 19.2148 92.489 19.1585C92.6206 19.1047 92.6865 19.0018 92.6865 18.8549Z" fill="white"/>
<path d="M101.618 17.4955C101.618 17.6252 101.579 17.6938 101.499 17.7036C101.16 17.7403 100.899 17.8407 100.716 18.0048C100.533 18.1713 100.333 18.4994 100.111 18.9891L96.5743 26.7511C96.1794 27.5836 95.7211 27.9998 95.1945 27.9998C94.941 27.9998 94.7362 27.9288 94.5826 27.7917C94.4291 27.6521 94.3535 27.4734 94.3535 27.2555C94.3535 27.0277 94.4217 26.8417 94.5583 26.6972C94.6948 26.5527 94.8776 26.4793 95.1068 26.4793C95.214 26.4793 95.3383 26.5184 95.4773 26.5943C95.5675 26.6409 95.6309 26.6629 95.6723 26.6629C95.8381 26.6629 96.0331 26.3789 96.2574 25.8108L97.1935 23.7565L95.4456 18.994C95.2603 18.5288 95.0751 18.2104 94.8874 18.0342C94.6997 17.8579 94.4461 17.7501 94.1268 17.7085C94.0463 17.6987 94.0073 17.6277 94.0073 17.5004C94.0073 17.3608 94.0439 17.2922 94.1195 17.2922C94.3145 17.2922 94.551 17.3069 94.8289 17.3388C95.1409 17.3681 95.4164 17.3853 95.6528 17.3853C95.8844 17.3853 96.1721 17.3706 96.5182 17.3388C96.8351 17.3069 97.096 17.2922 97.3008 17.2922C97.3812 17.2922 97.4202 17.3608 97.4202 17.5004C97.4202 17.6301 97.3812 17.6987 97.3008 17.7085C96.7791 17.7746 96.5182 17.9289 96.5182 18.1688C96.5182 18.3378 96.5865 18.612 96.723 18.9964L97.9297 22.1355L99.3607 18.9964C99.485 18.7075 99.5459 18.47 99.5459 18.2815C99.5459 17.9607 99.3046 17.7722 98.8219 17.7109C98.7415 17.7011 98.7025 17.6326 98.7025 17.5053C98.7025 17.3632 98.7415 17.2922 98.8219 17.2922C99.0316 17.2922 99.2656 17.3069 99.524 17.3388C99.7775 17.3681 100.007 17.3853 100.211 17.3853C100.314 17.3853 100.482 17.373 100.714 17.3461C101.033 17.3118 101.291 17.2922 101.486 17.2922C101.577 17.2873 101.618 17.3559 101.618 17.4955Z" fill="white"/>
<path d="M106.114 21.8833C106.114 22.5028 105.875 23.0219 105.394 23.443C104.917 23.8642 104.336 24.0748 103.659 24.0748C103.42 24.0748 103.049 24.0209 102.552 23.9156C102.176 23.8397 101.923 23.8005 101.789 23.8005C101.75 23.4455 101.657 22.9044 101.513 22.1796C101.513 22.1037 101.586 22.0645 101.73 22.0645C101.85 22.0645 101.923 22.1061 101.947 22.1869C102.062 22.5616 102.288 22.8897 102.63 23.1688C102.969 23.4479 103.32 23.5875 103.678 23.5875C104.054 23.5875 104.344 23.4847 104.551 23.2765C104.758 23.0684 104.863 22.777 104.863 22.4024C104.863 22.1649 104.778 21.9543 104.605 21.7707C104.431 21.5895 104.058 21.3618 103.486 21.0924C102.732 20.7423 102.232 20.4117 101.991 20.1032C101.75 19.7947 101.628 19.4225 101.628 18.9915C101.628 18.4578 101.854 18.0023 102.31 17.6179C102.764 17.2359 103.303 17.0425 103.922 17.0425C104.18 17.0425 104.546 17.089 105.017 17.1796C105.275 17.231 105.446 17.2555 105.526 17.2555C105.541 17.8554 105.572 18.3647 105.624 18.7859C105.624 18.8618 105.55 18.9009 105.407 18.9009C105.282 18.9009 105.212 18.8593 105.197 18.7785C105.141 18.4088 105.004 18.1076 104.785 17.8774C104.566 17.6473 104.305 17.5322 104 17.5322C103.222 17.5322 102.835 17.8774 102.835 18.5679C102.835 18.8006 102.927 19.016 103.11 19.2144C103.293 19.4127 103.695 19.6673 104.312 19.9832C105.048 20.3578 105.533 20.6835 105.767 20.9577C105.997 21.2295 106.114 21.5381 106.114 21.8833Z" fill="white"/>
<path d="M111.462 17.7895C111.462 18.0637 111.396 18.2009 111.267 18.2009L109.034 18.1396V21.7929C109.034 22.7454 109.368 23.2229 110.038 23.2229C110.453 23.2229 110.83 23.1249 111.169 22.9266C111.208 22.9266 111.245 22.9535 111.279 23.0074C111.313 23.0613 111.328 23.1176 111.328 23.1788C111.328 23.3061 111.143 23.4775 110.77 23.693C110.399 23.9085 109.98 24.0162 109.516 24.0162C108.948 24.0162 108.495 23.8399 108.156 23.4873C107.817 23.1347 107.646 22.6695 107.646 22.0916V22.0231L107.676 18.3257C107.676 18.1837 107.615 18.1127 107.495 18.1127H106.925C106.815 18.1127 106.759 18.049 106.759 17.9193C106.759 17.8189 106.803 17.7454 106.893 17.694C107.586 17.2753 108.188 16.6876 108.7 15.9286C108.756 15.8478 108.824 15.8062 108.909 15.8062C109.048 15.8062 109.119 15.8478 109.119 15.9286L109.058 17.383H111.262C111.399 17.3781 111.462 17.5153 111.462 17.7895Z" fill="white"/>
<path d="M118.807 20.6056C118.807 21.6144 118.482 22.447 117.834 23.0983C117.186 23.7496 116.347 24.0752 115.318 24.0752C114.29 24.0752 113.449 23.7471 112.798 23.0934C112.147 22.4396 111.823 21.6095 111.823 20.6056C111.823 19.587 112.149 18.7374 112.805 18.0616C113.461 17.3833 114.297 17.0454 115.318 17.0454C116.345 17.0454 117.181 17.3833 117.832 18.0567C118.48 18.73 118.807 19.5797 118.807 20.6056ZM117.293 20.5909C117.293 19.6629 117.117 18.921 116.764 18.3652C116.413 17.8094 115.928 17.5327 115.313 17.5327C114.704 17.5327 114.221 17.8118 113.868 18.3701C113.514 18.9284 113.336 19.6678 113.336 20.5909C113.336 21.5091 113.512 22.2388 113.86 22.7775C114.209 23.3186 114.694 23.588 115.313 23.588C115.933 23.588 116.418 23.3211 116.766 22.7849C117.117 22.2511 117.293 21.5189 117.293 20.5909Z" fill="white"/>
<path d="M127.151 23.6342C127.151 23.7762 127.112 23.8472 127.032 23.8472C126.832 23.8472 126.588 23.8325 126.298 23.8007C125.979 23.7713 125.696 23.7542 125.452 23.7542C125.203 23.7542 124.918 23.7689 124.594 23.8007C124.299 23.8301 124.053 23.8472 123.855 23.8472C123.775 23.8472 123.736 23.7762 123.736 23.6342C123.736 23.5069 123.775 23.4383 123.855 23.4285C124.199 23.3893 124.426 23.289 124.533 23.1322C124.64 22.9755 124.694 22.645 124.694 22.143V19.6014C124.694 19.0333 124.584 18.6171 124.365 18.3526C124.145 18.0882 123.807 17.956 123.346 17.956C123.056 17.956 122.8 18.0123 122.578 18.1225C122.356 18.2351 122.117 18.431 121.864 18.715V22.1381C121.864 22.6401 121.917 22.9706 122.025 23.1273C122.132 23.2841 122.359 23.3844 122.702 23.4236C122.783 23.4334 122.822 23.502 122.822 23.6293C122.822 23.7713 122.783 23.8423 122.702 23.8423C122.498 23.8423 122.249 23.8276 121.954 23.7958C121.63 23.7664 121.345 23.7493 121.101 23.7493C120.862 23.7493 120.581 23.764 120.262 23.7958C119.967 23.8252 119.719 23.8423 119.514 23.8423C119.433 23.8423 119.394 23.7713 119.394 23.6293C119.394 23.502 119.433 23.4334 119.514 23.4236C119.943 23.3673 120.221 23.262 120.345 23.1078C120.469 22.9535 120.533 22.6303 120.533 22.1381V19.3321C120.533 18.9281 120.482 18.6612 120.379 18.5338C120.277 18.4065 120.048 18.3233 119.694 18.2841C119.614 18.2841 119.575 18.218 119.575 18.0833C119.575 17.9584 119.614 17.8972 119.694 17.8972C120.189 17.7699 120.601 17.6279 120.93 17.4663C121.259 17.3071 121.466 17.1749 121.552 17.0745C121.6 17.0133 121.657 16.9839 121.717 16.9839C121.856 16.9839 121.927 17.0255 121.927 17.1063L121.866 18.0662C122.583 17.3855 123.251 17.0475 123.87 17.0475C124.548 17.0475 125.079 17.2459 125.459 17.6401C125.84 18.0368 126.032 18.5681 126.032 19.239V22.1455C126.032 22.6425 126.093 22.9682 126.215 23.12C126.337 23.2718 126.61 23.3771 127.037 23.431C127.112 23.4383 127.151 23.5069 127.151 23.6342Z" fill="white"/>
<path d="M133.402 19.5258C133.402 19.6678 133.312 19.7388 133.132 19.7388H129.026C128.997 20.0131 128.98 20.2971 128.98 20.5909C128.98 21.4088 129.17 22.0356 129.553 22.4739C129.935 22.9122 130.479 23.1326 131.184 23.1326C131.537 23.1326 131.896 23.0371 132.254 22.8436C132.615 22.6502 132.903 22.4053 133.124 22.1066L133.161 22.0919C133.205 22.0919 133.249 22.1188 133.293 22.1752C133.334 22.2315 133.356 22.2976 133.356 22.3735C133.356 22.4788 133.195 22.7016 132.876 23.0395C132.556 23.3774 132.208 23.6345 131.835 23.8108C131.459 23.9896 131.067 24.0777 130.657 24.0777C129.758 24.0777 129.002 23.7422 128.387 23.0738C127.773 22.4053 127.466 21.5826 127.466 20.6081C127.466 19.614 127.766 18.7717 128.368 18.0812C128.97 17.3907 129.733 17.0454 130.657 17.0454C131.432 17.0454 132.083 17.3025 132.61 17.8167C133.139 18.3309 133.402 18.9014 133.402 19.5258ZM132.037 18.8549C132.037 18.4754 131.908 18.1595 131.652 17.9073C131.396 17.6551 131.064 17.5302 130.66 17.5302C130.274 17.5302 129.94 17.6943 129.66 18.0199C129.377 18.348 129.187 18.7765 129.087 19.3103L131.169 19.2491C131.484 19.2442 131.708 19.2148 131.84 19.1585C131.971 19.1047 132.037 19.0018 132.037 18.8549Z" fill="white"/>
</svg>
