<svg width="24" height="24" viewBox="0 0 24 24" fill="none" xmlns="http://www.w3.org/2000/svg">
<path d="M21.5899 14.6095C21.031 13.9263 20.1617 13.7546 19.4263 14.1787C19.1485 14.3402 18.8674 14.5691 18.5896 14.8653C18.204 15.2725 17.8249 15.6999 17.4621 16.1106L17.3837 16.1981C17.2595 16.3394 17.132 16.4808 17.0045 16.6221C16.6222 15.7067 16.0927 15.3903 15.0174 15.3903L14.671 15.3869C14.3932 15.3836 14.1056 15.3836 13.8213 15.3937C13.6807 15.4004 13.599 15.36 13.4912 15.2389C12.6872 14.3335 11.8146 13.8724 10.8275 13.8388C9.14113 13.7815 7.70963 14.3503 6.5494 15.5384C6.31409 15.7774 6.09185 15.7807 5.79444 15.7639C5.7781 15.1042 5.60161 14.9326 4.94469 14.9326H4.55904C3.96095 14.9326 3.36286 14.9326 2.7615 14.9326C2.22224 14.9259 2 15.1581 2 15.7201V20.0517C2 20.7854 2 21.5191 2 22.2528C2 22.8923 2.40526 22.9899 2.64711 22.9932C3.04257 22.9966 3.44457 23 3.84656 23C4.28778 23 4.73226 22.9966 5.17347 22.9932C5.54278 22.9899 5.77483 22.7543 5.79444 22.3639C5.79771 22.2831 5.79771 22.2057 5.79771 22.1182H15.7953C17.132 22.1182 18.2138 21.5561 19.0112 20.4488C19.4721 19.8127 19.9296 19.1766 20.3904 18.5405C20.8055 17.9684 21.2173 17.3962 21.6324 16.8241C22.139 16.124 22.1193 15.2557 21.5899 14.6095ZM10.2458 15.1177C11.223 15.0167 12.0303 15.3937 12.7101 16.2654C12.929 16.5447 13.1774 16.6692 13.5402 16.6692C14.1481 16.6558 14.756 16.6591 15.3443 16.676C15.6319 16.6827 15.8574 16.8981 15.8737 17.1707C15.8868 17.4231 15.6874 17.6554 15.4064 17.7092C15.305 17.7294 15.1939 17.7294 15.0763 17.7294H11.7721H10.5073C10.4386 17.7294 10.37 17.7294 10.2981 17.7328C9.96146 17.7631 9.74249 17.9953 9.72288 18.3386C9.70653 18.655 9.89283 18.904 10.2098 18.9848C10.3046 19.0084 10.4027 19.0084 10.4876 19.0084H12.1087C13.1905 19.0084 14.3082 19.0084 15.426 19.0117C16.2071 19.0117 16.8379 18.7223 17.3575 18.1266C18.0177 17.3727 18.7073 16.6019 19.4688 15.7706C19.6355 15.5889 19.8348 15.424 20.0407 15.2961C20.2368 15.1749 20.4623 15.2254 20.629 15.4273C20.7892 15.6225 20.7957 15.8312 20.6486 16.0365L20.1257 16.7635C19.3969 17.7765 18.6452 18.8266 17.887 19.843C17.4065 20.4859 16.7431 20.8291 15.9587 20.8325C14.1023 20.8426 12.2231 20.8426 10.37 20.8426H5.81078V17.0496H5.83693C5.99707 17.0462 6.16048 17.0428 6.32063 17.0563C6.65726 17.0799 6.92852 16.9654 7.17364 16.6894C7.98743 15.7706 9.0202 15.2422 10.2458 15.1177ZM4.53616 16.2284V21.7042H3.26154V16.2284H4.53616Z" fill="#20A2F3"/>
<path d="M10.3733 13.657C11.4976 13.6604 12.6219 13.6638 13.7462 13.6638C14.8247 13.6638 15.9032 13.6604 16.9817 13.6604C17.4883 13.6604 17.74 13.3945 17.7432 12.856C17.7465 12.4656 17.7465 12.0685 17.7465 11.6848V11.2776C17.7432 9.11683 16.5275 7.52152 14.5436 7.02341C16.1287 6.33009 16.8804 5.16222 16.6647 3.69818C16.4392 2.16009 15.2692 1.04944 13.8148 1.00232C12.3278 0.945105 11.0564 1.95142 10.7492 3.39864C10.589 4.14917 10.6838 4.86942 11.0303 5.53917C11.4094 6.26615 11.9846 6.76089 12.7886 7.04024C11.1185 7.50469 10.0204 8.63554 9.74257 10.2107C9.63145 10.8468 9.63472 11.5098 9.63472 12.1492C9.63472 12.3882 9.63472 12.6305 9.63145 12.8729C9.62491 13.132 9.68701 13.3238 9.81447 13.4585C9.94193 13.5931 10.125 13.657 10.3733 13.657ZM13.6808 8.27542C13.7723 8.27542 13.8606 8.27879 13.9521 8.28888C15.3051 8.42014 16.3444 9.54426 16.4229 10.9645C16.4425 11.2843 16.4359 11.604 16.4327 11.9406C16.4327 12.0516 16.4294 12.1661 16.4294 12.294H10.9028C10.9126 12.119 10.9191 11.9406 10.9224 11.7622C10.9387 11.2776 10.9518 10.8232 11.0466 10.3823C11.3146 9.14039 12.3997 8.27542 13.6808 8.27542ZM13.6808 5.83198V6.00026L13.671 5.83198C13.2167 5.82862 12.7886 5.64351 12.4683 5.30695C12.148 4.97375 11.9781 4.53285 11.9813 4.0684C11.9944 3.11929 12.7624 2.34857 13.7135 2.34857C14.6417 2.35866 15.3901 3.14285 15.3868 4.09532C15.3836 5.05116 14.6188 5.83198 13.6808 5.83198Z" fill="#20A2F3"/>
</svg>
