<svg width="24" height="24" viewBox="0 0 24 24" fill="none" xmlns="http://www.w3.org/2000/svg">
<path d="M14.4944 21.1305C14.4944 18.3529 14.4944 15.5885 14.4944 12.8104C12.8362 12.8104 11.1956 12.8104 9.51631 12.8104C9.51631 12.9199 9.51631 13.02 9.51631 13.1197C9.51631 14.9459 9.51337 16.7726 9.51827 18.5988C9.51925 18.9449 9.39657 19.2105 9.08004 19.3568C8.75125 19.509 8.43717 19.4481 8.15353 19.2331C7.94594 19.076 7.85319 18.8566 7.85319 18.6003C7.85221 16.402 7.84927 14.2032 7.85516 12.0048C7.85663 11.4614 8.22125 11.133 8.8013 11.132C10.3589 11.129 11.9165 11.1305 13.4746 11.1305C14.0547 11.1305 14.6342 11.1285 15.2143 11.131C15.839 11.1339 16.1786 11.4692 16.1791 12.0937C16.1815 14.9935 16.1806 17.8929 16.1806 20.7927C16.1806 20.9032 16.1806 21.0137 16.1806 21.1271C17.0516 21.1271 17.8898 21.1428 18.7275 21.1202C19.15 21.1089 19.4572 20.7712 19.5063 20.3485C19.5161 20.2631 19.5146 20.1757 19.5146 20.0893C19.5151 16.5493 19.5137 13.0088 19.5186 9.46875C19.5191 9.27974 19.469 9.15063 19.3237 9.02299C17.1193 7.0873 14.9213 5.14425 12.7199 3.20562C12.2065 2.75348 11.8228 2.76232 11.3075 3.2174C8.44797 5.74464 5.58745 8.27091 2.72889 10.7991C2.49383 11.0068 2.25533 11.1801 1.91623 11.0893C1.56289 10.9945 1.31065 10.7864 1.22183 10.4255C1.14037 10.0942 1.29544 9.83841 1.53689 9.62535C2.43837 8.82908 3.33986 8.03232 4.24135 7.23654C6.24553 5.46678 8.25118 3.69751 10.2544 1.92677C11.3433 0.964084 12.6816 0.954756 13.7715 1.91646C16.6664 4.46924 19.5568 7.02692 22.4512 9.58018C22.6716 9.77459 22.8119 9.99943 22.8001 10.2989C22.7864 10.6337 22.6514 10.9101 22.3403 11.0564C22.0316 11.2017 21.7328 11.1447 21.4658 10.9332C21.3858 10.8698 21.3098 10.8021 21.1802 10.6926C21.1802 10.8409 21.1802 10.9386 21.1802 11.0362C21.1802 14.0745 21.1817 17.1123 21.1792 20.1506C21.1782 21.4059 20.3891 22.4476 19.2109 22.7196C18.8948 22.7923 18.5587 22.7967 18.2318 22.7972C13.9742 22.8011 9.71653 22.8011 5.45888 22.7957C3.98715 22.7937 2.86434 21.6631 2.86286 20.1943C2.85992 17.8659 2.86041 15.5375 2.86286 13.209C2.86335 12.6106 3.41151 12.2076 3.98518 12.3755C4.31791 12.4727 4.52402 12.7824 4.52451 13.2012C4.52549 14.7677 4.52303 16.3347 4.52254 17.9012C4.52254 18.6715 4.52205 19.4417 4.52598 20.2125C4.52892 20.7608 4.88471 21.128 5.43434 21.1295C8.40233 21.1379 11.3703 21.1403 14.3388 21.1442C14.3874 21.1442 14.4374 21.1354 14.4944 21.1305Z" fill="white"/>
</svg>
