<svg width="24" height="24" viewBox="0 0 24 24" fill="none" xmlns="http://www.w3.org/2000/svg">
<path d="M11.5 12.002H1.5C1.22386 12.002 1 12.2258 1 12.502V22.4993C1 22.7754 1.22386 22.9993 1.5 22.9993H11.5C11.7761 22.9993 12 22.7754 12 22.4993V12.502C12 12.2258 11.7761 12.002 11.5 12.002Z" stroke="white" stroke-miterlimit="10"/>
<path d="M7.90651 16.6056L6.49997 15.5825L5.09277 16.6056V12.002H7.90651V16.6056Z" stroke="white" stroke-miterlimit="10"/>
<path d="M22.5002 12.002H12.5002C12.2241 12.002 12.0002 12.2258 12.0002 12.502V22.4993C12.0002 22.7754 12.2241 22.9993 12.5002 22.9993H22.5002C22.7764 22.9993 23.0002 22.7754 23.0002 22.4993V12.502C23.0002 12.2258 22.7764 12.002 22.5002 12.002Z" stroke="white" stroke-miterlimit="10"/>
<path d="M18.907 16.6056L17.5004 15.5825L16.0932 16.6056V12.002H18.907V16.6056Z" stroke="white" stroke-miterlimit="10"/>
<path d="M17.0004 1H7.00037C6.72422 1 6.50037 1.22386 6.50037 1.5V11.4973C6.50037 11.7735 6.72422 11.9973 7.00037 11.9973H17.0004C17.2765 11.9973 17.5004 11.7735 17.5004 11.4973V1.5C17.5004 1.22386 17.2765 1 17.0004 1Z" stroke="white" stroke-miterlimit="10"/>
<path d="M13.4061 5.60369L11.9996 4.58058L10.593 5.60369V1H13.4061V5.60369Z" stroke="white" stroke-miterlimit="10"/>
</svg>
