<svg width="24" height="24" viewBox="0 0 24 24" fill="none" xmlns="http://www.w3.org/2000/svg">
<path d="M6.16681 4.67173C4.87365 4.67173 3.6331 4.67624 2.38816 4.67173C1.50267 4.66721 0.954723 4.06682 1.00294 3.15495C1.04239 2.40559 1.29664 1.73749 1.77884 1.1687C2.41446 0.410312 3.22981 0.00854716 4.19858 0.00854716C9.39314 -0.000481256 14.5921 -0.00499546 19.7866 0.00854716C21.6234 0.0130614 22.991 1.50726 22.9954 3.47095C22.9998 7.12745 22.9954 10.7794 22.9954 14.436C22.9954 16.6028 22.9823 18.7651 22.9998 20.9319C23.0086 21.8031 22.728 22.4893 22.0091 22.9814C21.7768 23.1394 21.5751 23.356 21.3603 23.5411C20.6327 24.1641 19.699 24.1505 18.9844 23.514C18.8398 23.3831 18.6995 23.2477 18.5548 23.1213C17.871 22.5164 16.9504 22.5029 16.2491 23.0852C16.0693 23.2342 15.9028 23.4057 15.723 23.5547C15.0217 24.1505 14.1186 24.146 13.4173 23.5501C13.2551 23.4102 13.1017 23.2567 12.9395 23.1168C12.2206 22.4938 11.3 22.5029 10.5899 23.1348C10.2085 23.4734 9.86656 23.8707 9.33177 23.9564C9.29231 23.9609 9.25286 23.9835 9.21341 23.979C8.2797 23.9474 7.32846 24.0196 6.41668 23.8526C4.18105 23.4463 2.4846 21.3878 2.3224 19.1217C2.13391 16.5035 3.72515 14.3231 5.81613 13.6234C6.10106 13.5286 6.17558 13.3977 6.17558 13.1043C6.16243 10.4409 6.1712 7.77299 6.1712 5.1096C6.16681 4.97869 6.16681 4.84778 6.16681 4.67173ZM10.0989 13.9981C10.5153 14.3728 10.9318 14.7113 11.3088 15.095C11.4753 15.2666 11.6332 15.3298 11.8611 15.3298C14.408 15.3207 16.9548 15.3253 19.5017 15.3253C19.6507 15.3253 19.8085 15.3298 19.9532 15.3704C20.2294 15.4426 20.4091 15.709 20.4047 15.9979C20.4047 16.2868 20.2206 16.5486 19.9444 16.6208C19.7998 16.6569 19.6464 16.666 19.4929 16.666C17.2091 16.6705 14.9252 16.666 12.6414 16.666C12.5274 16.666 12.4134 16.666 12.2688 16.666C12.8737 18.2911 12.6808 19.8124 11.9795 21.293C13.3734 21.6903 13.4786 21.74 14.1099 22.3584C14.5307 22.7692 14.6797 22.7692 15.105 22.3719C15.1663 22.3178 15.2233 22.2546 15.2803 22.2004C16.0825 21.4691 17.0162 21.2073 18.0639 21.424C18.6337 21.5413 19.1203 21.8212 19.5455 22.2275C20.1549 22.8188 20.1943 22.8143 20.8124 22.2546C20.9614 22.1191 21.1192 21.9792 21.2858 21.8709C21.5839 21.6813 21.6979 21.424 21.6979 21.0628C21.6935 15.2034 21.6935 9.33942 21.6935 3.47997C21.6935 3.28135 21.6891 3.08272 21.6453 2.89313C21.4305 1.9316 20.6633 1.33572 19.642 1.33572C15.5258 1.33121 11.414 1.33572 7.29778 1.33572C7.22326 1.33572 7.14874 1.34927 7.03476 1.36281C7.50381 2.34691 7.46874 3.36712 7.46874 4.38733C7.46436 7.24934 7.46874 10.1113 7.46874 12.9779C7.46874 13.0907 7.46874 13.1991 7.46874 13.3074C7.92025 13.3706 8.33669 13.4248 8.74875 13.4835C8.78382 12.8786 8.98984 12.6799 9.56848 12.6754C12.9132 12.6754 16.2622 12.6754 19.6069 12.6754C19.6858 12.6754 19.7691 12.6754 19.848 12.6844C20.3083 12.7522 20.545 13.2803 20.2995 13.6821C20.1505 13.9259 19.9225 14.0026 19.6507 14.0026C18.5505 13.9981 17.4458 14.0026 16.3455 14.0026C14.2677 13.9981 12.1855 13.9981 10.0989 13.9981ZM3.58926 18.6432C3.56734 20.8371 5.29448 22.6383 7.43805 22.6654C9.55533 22.6879 11.3175 20.9093 11.3526 18.7019C11.3877 16.5306 9.65177 14.6978 7.54326 14.6752C5.35146 14.6481 3.61118 16.3951 3.58926 18.6432ZM2.31364 3.30843C3.58926 3.30843 4.8605 3.30843 6.13613 3.30843C6.20626 2.30177 5.32955 1.36732 4.30817 1.33572C3.20351 1.30413 2.28295 2.20245 2.31364 3.30843Z" fill="white"/>
<path d="M13.9302 7.31693C13.9302 7.9715 13.9346 8.62606 13.9302 9.28513C13.9214 10.1067 13.3998 10.6529 12.5976 10.6665C11.7603 10.68 10.9187 10.68 10.0814 10.6665C9.29234 10.6529 8.76631 10.0841 8.76192 9.26707C8.75754 7.97601 8.75754 6.68495 8.76192 5.39388C8.76631 4.56327 9.30987 4.00351 10.1121 3.99899C10.9406 3.99448 11.7691 3.99448 12.5976 3.99899C13.3735 4.00351 13.9083 4.54972 13.9258 5.34874C13.9346 5.68279 13.9258 6.01684 13.9258 6.34638C13.9302 6.6714 13.9302 6.99643 13.9302 7.31693ZM12.6195 9.31222C12.6195 7.98052 12.6195 6.66689 12.6195 5.35777C11.7559 5.35777 10.9143 5.35777 10.0682 5.35777C10.0682 6.68946 10.0682 7.99407 10.0682 9.31222C10.923 9.31222 11.7559 9.31222 12.6195 9.31222Z" fill="white"/>
<path d="M17.8053 10.6666C17.1916 10.6666 16.5735 10.6756 15.9598 10.6666C15.4907 10.662 15.2102 10.3641 15.2409 9.93977C15.2628 9.60572 15.5039 9.33938 15.8633 9.33486C17.1653 9.32132 18.4672 9.32132 19.7691 9.33486C20.1593 9.33938 20.4223 9.65537 20.4047 10.0255C20.3872 10.3912 20.1198 10.6575 19.7165 10.6666C19.0765 10.6756 18.4409 10.6666 17.8053 10.6666Z" fill="white"/>
<path d="M17.7964 5.32617C17.1915 5.32617 16.5866 5.33068 15.9816 5.32617C15.5082 5.32165 15.2364 5.07337 15.2408 4.65807C15.2452 4.25179 15.5301 3.99899 15.9948 3.99899C17.2178 3.99448 18.4364 3.99448 19.6595 3.99899C20.111 3.99899 20.4134 4.26984 20.4091 4.67161C20.4047 5.06434 20.1241 5.32165 19.6814 5.32617C19.0458 5.33068 18.4233 5.32617 17.7964 5.32617Z" fill="white"/>
<path d="M17.8272 7.99841C17.2222 7.99841 16.6173 7.99841 16.0123 7.99841C15.5258 7.99841 15.2365 7.74562 15.2365 7.33031C15.2365 6.91952 15.5126 6.67575 15.9904 6.67575C17.2135 6.67123 18.4321 6.67123 19.6551 6.67575C20.1198 6.67575 20.4091 6.94209 20.4047 7.33934C20.4003 7.73659 20.1066 7.99841 19.6463 7.99841C19.037 7.99841 18.4321 7.99841 17.8272 7.99841Z" fill="white"/>
<path d="M7.03917 19.1306C7.56958 18.607 8.0737 18.0969 8.59096 17.6048C8.99425 17.2211 9.58604 17.361 9.68247 17.8802C9.71754 18.0788 9.63864 18.3767 9.50713 18.5212C8.87151 19.2028 8.20082 19.8529 7.53451 20.4984C7.23643 20.7873 6.89013 20.7783 6.58766 20.4894C6.19752 20.1147 5.80738 19.7355 5.43039 19.3473C5.13669 19.0448 5.12354 18.6566 5.38656 18.3767C5.64519 18.1014 6.03533 18.1059 6.33341 18.3903C6.45177 18.5031 6.56136 18.625 6.67533 18.7424C6.78492 18.8598 6.89889 18.9816 7.03917 19.1306Z" fill="white"/>
</svg>
