<svg width="24" height="24" viewBox="0 0 24 24" fill="none" xmlns="http://www.w3.org/2000/svg">
<path d="M11.5 12.002H1.5C1.22386 12.002 1 12.2258 1 12.502V22.4993C1 22.7754 1.22386 22.9993 1.5 22.9993H11.5C11.7761 22.9993 12 22.7754 12 22.4993V12.502C12 12.2258 11.7761 12.002 11.5 12.002Z" stroke="#28A1D9" stroke-miterlimit="10"/>
<path d="M7.90651 16.6056L6.49997 15.5825L5.09277 16.6056V12.002H7.90651V16.6056Z" stroke="#28A1D9" stroke-miterlimit="10"/>
<path d="M22.5 12.002H12.5C12.2239 12.002 12 12.2258 12 12.502V22.4993C12 22.7754 12.2239 22.9993 12.5 22.9993H22.5C22.7761 22.9993 23 22.7754 23 22.4993V12.502C23 12.2258 22.7761 12.002 22.5 12.002Z" stroke="#28A1D9" stroke-miterlimit="10"/>
<path d="M18.9065 16.6056L17.5 15.5825L16.0928 16.6056V12.002H18.9065V16.6056Z" stroke="#28A1D9" stroke-miterlimit="10"/>
<path d="M17.0005 1H7.00049C6.72435 1 6.50049 1.22386 6.50049 1.5V11.4973C6.50049 11.7735 6.72435 11.9973 7.00049 11.9973H17.0005C17.2766 11.9973 17.5005 11.7735 17.5005 11.4973V1.5C17.5005 1.22386 17.2766 1 17.0005 1Z" stroke="#28A1D9" stroke-miterlimit="10"/>
<path d="M13.4063 5.60369L11.9998 4.58058L10.5933 5.60369V1H13.4063V5.60369Z" stroke="#28A1D9" stroke-miterlimit="10"/>
</svg>
