<svg width="24" height="24" viewBox="0 0 24 24" fill="none" xmlns="http://www.w3.org/2000/svg">
<path d="M24.0002 16.9158V15.5895C24.0002 15.2579 23.6773 14.9263 23.3544 14.9263H22.9238C22.7085 14.9263 22.4933 14.8158 22.3856 14.4842C22.278 14.2631 22.3856 13.9316 22.4933 13.821L22.8162 13.4895C23.0315 13.2684 23.0315 12.8263 22.8162 12.6052L21.9551 11.721C21.7398 11.5 21.3092 11.5 21.0939 11.721L20.771 12.0526C20.5557 12.2737 20.3405 12.2737 20.1252 12.1631C19.9099 12.0526 19.6946 11.8316 19.6946 11.6105V11.1684C19.6946 10.8368 19.3717 10.5052 19.0488 10.5052H17.7571C17.4342 10.5052 17.1113 10.8368 17.1113 11.1684V11.6105C17.1113 11.8316 17.0036 12.0526 16.6807 12.1631C16.4654 12.2737 16.1425 12.1631 16.0349 12.0526L15.7119 11.721C15.4967 11.5 15.0661 11.5 14.8508 11.721L13.9897 12.6052C13.7744 12.8263 13.7744 13.2684 13.9897 13.4895L14.3126 13.821C14.5279 14.0421 14.5279 14.2631 14.4203 14.4842C14.3126 14.7052 14.0973 14.9263 13.8821 14.9263H13.4515C13.1286 14.9263 12.8057 15.2579 12.8057 15.5895V16.9158C12.8057 17.2474 13.1286 17.5789 13.4515 17.5789H13.8821C14.0973 17.5789 14.3126 17.6895 14.4203 18.021C14.5279 18.2421 14.4203 18.5737 14.3126 18.6842L13.9897 19.0158C13.7744 19.2368 13.7744 19.6789 13.9897 19.9L14.8508 20.7842C15.0661 21.0052 15.4967 21.0052 15.7119 20.7842L16.0349 20.4526C16.2501 20.2316 16.4654 20.2316 16.6807 20.3421C16.896 20.4526 17.1113 20.6737 17.1113 20.8947V21.3368C17.1113 21.6684 17.4342 22 17.7571 22H19.0488C19.3717 22 19.6946 21.6684 19.6946 21.3368V20.8947C19.6946 20.6737 19.8023 20.4526 20.1252 20.3421C20.3405 20.2316 20.6634 20.3421 20.771 20.4526L21.0939 20.7842C21.3092 21.0052 21.7398 21.0052 21.9551 20.7842L22.8162 19.9C23.0315 19.6789 23.0315 19.2368 22.8162 19.0158L22.4933 18.6842C22.278 18.4631 22.278 18.2421 22.3856 18.021C22.4933 17.8 22.7085 17.5789 22.9238 17.5789H23.3544C23.6773 17.4684 24.0002 17.2474 24.0002 16.9158ZM18.6182 19.2368C16.7883 19.3474 15.2814 17.8 15.4967 16.0316C15.6043 14.5947 16.7883 13.3789 18.1877 13.2684C20.0175 13.1579 21.5245 14.7052 21.3092 16.4737C21.2016 17.9105 20.0175 19.1263 18.6182 19.2368Z" fill="#20A2F3"/>
<path d="M12.052 17.4684C11.1909 17.5789 10.3298 17.5789 9.36099 17.5789V17.8V17.5789C6.88527 17.5789 4.94775 17.3579 3.11787 16.8053C2.68731 16.6947 2.14911 16.4737 1.50327 16.2526C1.50327 16.2526 1.50327 16.2526 1.50327 16.1421C2.25675 14.2632 3.54843 12.9368 5.37831 12.2737C5.70123 12.1632 6.02415 12.0526 6.45471 11.9421L6.66999 11.8316C8.28459 12.8263 10.0068 12.7158 11.6214 11.721C12.1596 11.8316 12.6978 11.9421 13.1284 12.1632C13.236 12.0526 13.236 11.9421 13.3437 11.8316L14.2048 10.9474C13.7742 10.7263 13.3437 10.6158 12.9131 10.3947C14.0972 8.84737 14.5277 6.96842 14.2048 4.97895C13.8819 3.21053 12.9131 1.99474 11.4062 1.33158C10.0068 0.889474 8.71515 0.889474 7.31583 1.33158C5.70123 1.77368 4.62483 2.87895 4.08663 4.53684C3.65607 5.97368 3.76371 7.52105 4.30191 8.95789C4.51719 9.62105 4.84011 10.1737 5.27067 10.7263C4.51719 10.9474 3.87135 11.2789 3.33315 11.721C1.71855 12.7158 0.642153 14.1526 0.103953 16.0316C-0.111327 16.6947 -0.00368712 17.0263 0.534513 17.4684C0.642153 17.5789 0.749793 17.6895 0.965073 17.8L1.28799 17.9105C1.61091 18.021 2.04147 18.2421 2.36439 18.3526C4.19427 18.9053 6.13179 19.1263 8.60751 19.2368C8.93043 19.2368 9.14571 19.2368 9.46863 19.2368C10.6527 19.2368 11.9444 19.1263 13.0208 19.0158C13.1284 18.7947 13.236 18.5737 13.3437 18.4632C12.8055 18.3526 12.2673 18.021 12.052 17.4684ZM5.70123 4.42631C6.13179 3.65263 6.77763 3.1 7.63875 2.76842C8.06931 2.65789 8.60751 2.54737 9.03807 2.54737C9.46863 2.54737 9.89919 2.65789 10.3298 2.76842C11.5138 3.1 12.3749 3.98421 12.5902 5.31053C12.9131 6.96842 12.5902 8.51579 11.6214 9.8421C10.9756 10.7263 10.0068 11.2789 9.03807 11.2789C7.96167 11.2789 6.99291 10.7263 6.34707 9.8421C5.48595 8.73684 5.27067 7.52105 5.27067 6.74737C5.27067 5.6421 5.48595 4.97895 5.70123 4.42631Z" fill="#20A2F3"/>
</svg>
