<svg width="22" height="22" viewBox="0 0 22 22" fill="none" xmlns="http://www.w3.org/2000/svg">
<path d="M2.3776 10.3244C2.34871 10.6964 2.04895 11 1.67576 11C1.30256 11 0.997649 10.6971 1.02288 10.3247C1.14738 8.48723 1.7774 6.71495 2.84948 5.20672C4.05239 3.51443 5.75218 2.23848 7.71302 1.5559C9.67387 0.873319 11.7986 0.817946 13.7923 1.39746C15.786 1.97698 17.55 3.16266 18.8394 4.79V3.97236C18.8394 3.59916 19.1419 3.29662 19.5151 3.29662C19.8883 3.29662 20.1909 3.59916 20.1909 3.97236V7.02677C20.1909 7.57905 19.7432 8.02677 19.1909 8.02677H16.1365C15.7633 8.02677 15.4607 7.72423 15.4607 7.35103C15.4607 6.97783 15.7633 6.6753 16.1365 6.6753H18.4912C17.7313 5.36111 16.6393 4.26978 15.3247 3.51074C14.01 2.75169 12.5189 2.3516 11.0009 2.35059C6.45888 2.35059 2.7234 5.86957 2.3776 10.3244ZM20.326 11C19.9528 11 19.653 11.3036 19.6242 11.6756C19.2784 16.1304 15.5429 19.6494 11.0009 19.6494C9.48283 19.6484 7.99173 19.2483 6.67708 18.4893C5.36243 17.7302 4.27043 16.6389 3.51058 15.3247H5.86529C6.23849 15.3247 6.54103 15.0222 6.54103 14.649C6.54103 14.2758 6.23849 13.9732 5.86529 13.9732H2.81088C2.2586 13.9732 1.81088 14.4209 1.81088 14.9732V18.0276C1.81088 18.4008 2.11342 18.7034 2.48662 18.7034C2.85982 18.7034 3.16235 18.4008 3.16235 18.0276V17.21C4.45178 18.8373 6.21572 20.023 8.20946 20.6025C10.2032 21.1821 12.3279 21.1267 14.2887 20.4441C16.2496 19.7615 17.9494 18.4856 19.1523 16.7933C20.2244 15.285 20.8544 13.5128 20.9789 11.6753C21.0041 11.3029 20.6992 11 20.326 11Z" fill="white" stroke="white" stroke-width="0.6"/>
</svg>
