<svg width="14" height="14" viewBox="0 0 14 14" fill="none" xmlns="http://www.w3.org/2000/svg">
<path d="M10.077 12.9998H3.92313C3.61711 12.9998 3.32363 12.8734 3.10724 12.6483C2.89085 12.4233 2.76929 12.1181 2.76929 11.7998V4.1998C2.76929 4.09372 2.80981 3.99198 2.88194 3.91696C2.95407 3.84195 3.0519 3.7998 3.1539 3.7998C3.25591 3.7998 3.35374 3.84195 3.42587 3.91696C3.498 3.99198 3.53852 4.09372 3.53852 4.1998V11.7998C3.53852 11.9059 3.57904 12.0076 3.65117 12.0826C3.7233 12.1577 3.82113 12.1998 3.92313 12.1998H10.077C10.179 12.1998 10.2768 12.1577 10.3489 12.0826C10.4211 12.0076 10.4616 11.9059 10.4616 11.7998V4.1998C10.4616 4.09372 10.5021 3.99198 10.5742 3.91696C10.6464 3.84195 10.7442 3.7998 10.8462 3.7998C10.9482 3.7998 11.046 3.84195 11.1182 3.91696C11.1903 3.99198 11.2308 4.09372 11.2308 4.1998V11.7998C11.2308 12.1181 11.1093 12.4233 10.8929 12.6483C10.6765 12.8734 10.383 12.9998 10.077 12.9998Z" fill="#FF0018"/>
<path d="M11.6154 3.4001H2.38462C2.28261 3.4001 2.18478 3.35795 2.11265 3.28294C2.04052 3.20793 2 3.10618 2 3.0001C2 2.89401 2.04052 2.79227 2.11265 2.71726C2.18478 2.64224 2.28261 2.6001 2.38462 2.6001H11.6154C11.7174 2.6001 11.8152 2.64224 11.8873 2.71726C11.9595 2.79227 12 2.89401 12 3.0001C12 3.10618 11.9595 3.20793 11.8873 3.28294C11.8152 3.35795 11.7174 3.4001 11.6154 3.4001Z" fill="#FF0018"/>
<path d="M8.53849 3.4C8.43648 3.4 8.33865 3.35786 8.26652 3.28284C8.19439 3.20783 8.15387 3.10609 8.15387 3V1.8H5.84618V3C5.84618 3.10609 5.80566 3.20783 5.73353 3.28284C5.6614 3.35786 5.56357 3.4 5.46157 3.4C5.35956 3.4 5.26173 3.35786 5.1896 3.28284C5.11747 3.20783 5.07695 3.10609 5.07695 3V1.4C5.07695 1.29391 5.11747 1.19217 5.1896 1.11716C5.26173 1.04214 5.35956 1 5.46157 1H8.53849C8.64049 1 8.73832 1.04214 8.81045 1.11716C8.88258 1.19217 8.9231 1.29391 8.9231 1.4V3C8.9231 3.10609 8.88258 3.20783 8.81045 3.28284C8.73832 3.35786 8.64049 3.4 8.53849 3.4Z" fill="#FF0018"/>
<path d="M6.99997 10.9996C6.89797 10.9996 6.80014 10.9575 6.72801 10.8825C6.65588 10.8074 6.61536 10.7057 6.61536 10.5996V4.99961C6.61536 4.89352 6.65588 4.79178 6.72801 4.71677C6.80014 4.64175 6.89797 4.59961 6.99997 4.59961C7.10198 4.59961 7.19981 4.64175 7.27194 4.71677C7.34407 4.79178 7.38459 4.89352 7.38459 4.99961V10.5996C7.38459 10.7057 7.34407 10.8074 7.27194 10.8825C7.19981 10.9575 7.10198 10.9996 6.99997 10.9996Z" fill="#FF0018"/>
<path d="M8.92304 10.1999C8.82103 10.1999 8.7232 10.1578 8.65107 10.0827C8.57894 10.0077 8.53842 9.90599 8.53842 9.7999V5.7999C8.53842 5.69382 8.57894 5.59207 8.65107 5.51706C8.7232 5.44205 8.82103 5.3999 8.92304 5.3999C9.02504 5.3999 9.12287 5.44205 9.195 5.51706C9.26713 5.59207 9.30765 5.69382 9.30765 5.7999V9.7999C9.30765 9.90599 9.26713 10.0077 9.195 10.0827C9.12287 10.1578 9.02504 10.1999 8.92304 10.1999Z" fill="#FF0018"/>
<path d="M5.07682 10.1999C4.97481 10.1999 4.87698 10.1578 4.80485 10.0827C4.73272 10.0077 4.6922 9.90599 4.6922 9.7999V5.7999C4.6922 5.69382 4.73272 5.59207 4.80485 5.51706C4.87698 5.44205 4.97481 5.3999 5.07682 5.3999C5.17882 5.3999 5.27665 5.44205 5.34878 5.51706C5.42091 5.59207 5.46143 5.69382 5.46143 5.7999V9.7999C5.46143 9.90599 5.42091 10.0077 5.34878 10.0827C5.27665 10.1578 5.17882 10.1999 5.07682 10.1999Z" fill="#FF0018"/>
</svg>
