<svg width="24" height="24" viewBox="0 0 24 24" fill="none" xmlns="http://www.w3.org/2000/svg">
<path d="M22.9211 15.7717C22.6381 14.8998 22.1767 14.0981 21.5523 13.3878C20.6173 12.3269 19.467 11.5983 18.0368 11.1684C18.9749 9.8301 19.304 8.30888 19.0148 6.63827C18.7503 5.10485 17.8676 3.98603 16.462 3.40376C15.3178 2.92818 14.109 2.87331 12.8664 3.23609C12.4389 3.36108 12.0452 3.53789 11.6946 3.76044C11.5838 3.7269 11.4762 3.69947 11.3654 3.67203C10.372 3.44034 9.33853 3.47692 8.28969 3.78483C6.66877 4.2604 5.59533 5.3152 5.10014 6.92179C4.67568 8.29668 4.74643 9.74779 5.30929 11.2324C5.5492 11.8696 5.86908 12.4244 6.28123 12.9213C5.5615 13.1622 4.92174 13.464 4.3312 13.845C2.76564 14.8602 1.67682 16.2412 1.09243 17.9545C0.889431 18.552 1.01554 18.9697 1.52304 19.3538C1.63684 19.4391 1.79063 19.558 1.9844 19.6342C2.08282 19.6739 2.18432 19.7166 2.28275 19.7562C2.63338 19.9025 2.99632 20.0519 3.38387 20.1616C5.15858 20.6647 7.12091 20.9299 9.55998 20.9909C9.83987 20.997 10.1167 21 10.3935 21C12.0575 21 13.6815 20.8689 15.2194 20.6128C16.2128 20.4482 17.274 20.2348 18.2951 19.8019C18.5873 19.6769 18.8734 19.5154 19.144 19.3233C19.3501 19.177 19.4885 19.0154 19.5685 18.8325C19.6577 18.6313 19.6731 18.4026 19.6115 18.1435C20.2328 18.0246 20.9895 17.8447 21.7277 17.5338C21.9953 17.421 22.2536 17.2747 22.4997 17.0979C22.9672 16.7686 23.1056 16.3327 22.9211 15.7717ZM7.42848 14.1621L7.63763 14.1072C7.68992 14.1347 7.73913 14.1621 7.79142 14.1895C8.14206 14.3724 8.49885 14.5157 8.84641 14.6102C8.88024 14.6194 8.91407 14.6285 8.94791 14.6377L9.49231 15.5797L8.03441 19.433C6.60111 19.3324 5.32159 19.1312 4.1282 18.8233C3.66376 18.7044 3.16856 18.5246 2.57187 18.2624C2.56879 18.2624 2.56879 18.2594 2.56572 18.2594C2.56879 18.2472 2.57494 18.235 2.5811 18.2228C3.28237 16.4516 4.56803 15.1895 6.40118 14.4761C6.72414 14.3481 7.06862 14.2566 7.42848 14.1621ZM7.36697 11.8848C6.53651 10.7904 6.34889 9.65634 6.33659 8.89725C6.33659 8.00707 6.45962 7.38821 6.74259 6.82728C7.13936 6.0438 7.76989 5.51031 8.6188 5.24203C9.33545 5.01339 10.0644 4.96157 10.7995 5.08656C10.9871 5.12009 11.1717 5.16277 11.347 5.2146C11.4731 5.25118 11.5961 5.29691 11.7284 5.35178C11.7991 5.38227 11.8637 5.4097 11.9283 5.44019C12.8111 5.86699 13.3678 6.59864 13.5923 7.61686C13.8537 8.81799 13.7399 9.9429 13.254 10.9581C13.0909 11.2965 12.8849 11.6257 12.6388 11.9428L12.8203 12.083L12.6142 11.9732C11.9529 12.8055 11.0117 13.2811 10.0306 13.2811C9.96906 13.2811 9.90446 13.278 9.84295 13.275C9.4554 13.2506 9.07709 13.153 8.71722 12.9854C8.19742 12.7476 7.73298 12.3665 7.36697 11.8848ZM15.5454 4.76036C16.5604 5.06522 17.1878 5.73895 17.4093 6.76021C17.7077 8.12596 17.4339 9.36063 16.6004 10.4337C16.0929 11.0861 15.3824 11.4824 14.6196 11.5434C15.1886 10.3179 15.3516 8.97346 15.1025 7.54369C14.8995 6.37 14.352 5.39751 13.5123 4.70549C14.1921 4.53782 14.8749 4.55916 15.5454 4.76036ZM16.6803 12.4793C18.3382 12.7781 19.5931 13.4823 20.5158 14.6316C20.8388 15.034 21.1002 15.4821 21.294 15.9638C21.1156 16.0552 20.9464 16.1406 20.7773 16.2016C20.2605 16.3875 19.6854 16.5339 18.981 16.6558C18.7165 16.1833 18.3997 15.7382 18.0368 15.3236C17.1663 14.3359 16.1267 13.6042 14.878 13.1103C15.487 13.0433 16.0898 12.8329 16.6803 12.4793ZM11.8976 19.4757L10.6734 15.5888L11.3255 14.5767C11.7407 14.4517 12.159 14.2627 12.5681 14.0127C14.5304 14.3542 16.0129 15.1803 17.1017 16.5369C17.2647 16.7381 17.4155 16.9546 17.5539 17.1832C17.6984 17.421 17.8307 17.671 17.9383 17.921C17.9814 18.0185 18.0214 18.1161 18.0583 18.2167C18.0614 18.2228 18.0614 18.2289 18.0644 18.235C17.8092 18.3691 17.5692 18.4941 17.3293 18.5825C17.194 18.6313 17.0587 18.677 16.9233 18.7166C16.0375 18.991 15.1486 19.1373 14.3182 19.2532C13.5462 19.3599 12.7311 19.433 11.8976 19.4757Z" fill="#20A2F3"/>
</svg>
