<svg width="23" height="22" viewBox="0 0 23 22" fill="none" xmlns="http://www.w3.org/2000/svg">
<path d="M22.5174 18.1443C22.1535 17.0121 21.5603 15.9703 20.7554 15.0472C19.4146 13.5102 17.7085 12.5013 15.5522 11.9727C15.5693 11.9528 15.5859 11.9319 15.6025 11.9115C17.0715 10.0736 17.6112 7.94645 17.2071 5.58836C16.876 3.65728 15.7764 2.24919 14.0264 1.51571C12.5772 0.908337 11.0422 0.836935 9.46475 1.30429C7.63225 1.84675 6.42011 3.04991 5.86201 4.87991C5.37771 6.46789 5.45889 8.14674 6.10324 9.87011C6.42611 10.7325 6.87951 11.4766 7.48096 12.1267C6.48607 12.4229 5.61617 12.818 4.83391 13.327C3.02631 14.5042 1.76805 16.1117 1.09464 18.1044C0.891696 18.7048 1.00839 19.0887 1.51022 19.475C1.63937 19.5742 1.79988 19.698 1.99636 19.7777C2.11629 19.8264 2.23575 19.8765 2.35521 19.9265C2.76571 20.0986 3.19051 20.2761 3.63423 20.4032C5.71811 21.0003 8.02753 21.3133 10.902 21.3875C11.2308 21.3958 11.5583 21.4 11.8844 21.4C13.8475 21.4 15.7565 21.2461 17.571 20.9415C18.7347 20.7458 19.9746 20.4954 21.1599 19.9887C21.4897 19.8477 21.8112 19.6646 22.1152 19.4444C22.5815 19.1064 22.7019 18.7174 22.5174 18.1443ZM11.8531 20.1607C11.8355 20.1607 11.818 20.1607 11.8005 20.1607C8.87437 20.1468 6.5142 19.8802 4.37267 19.3219C3.80765 19.1745 3.20758 18.9561 2.48297 18.6339C2.35705 18.5783 2.28879 18.5412 2.25097 18.518C2.26527 18.4605 2.29802 18.3664 2.34875 18.2375C3.20989 16.0398 4.78871 14.4769 7.04186 13.5922C7.43899 13.4365 7.85272 13.3256 8.2909 13.2083C8.4099 13.1764 8.52936 13.1444 8.6479 13.1119C10.5667 14.2316 12.4974 14.2015 14.3862 13.0224C14.3959 13.0164 14.4097 13.0108 14.4194 13.0085C16.864 13.4202 18.7112 14.4481 20.0663 16.1502C20.6203 16.8461 21.0479 17.6315 21.3366 18.4846C21.2794 18.5147 21.2222 18.5449 21.165 18.5755C20.8408 18.7475 20.535 18.9102 20.2167 19.0261C19.0092 19.4661 17.7565 19.679 16.5821 19.844C15.079 20.0536 13.4881 20.1607 11.8531 20.1607ZM14.7616 10.9819C13.9171 12.0766 12.7036 12.6983 11.4273 12.6914C10.1372 12.6826 8.91357 12.033 8.0695 10.9082C7.0391 9.53536 6.80571 8.11614 6.79141 7.16614C6.79279 6.05293 6.94546 5.27354 7.30246 4.56092C7.80614 3.55528 8.61008 2.86955 9.69261 2.52274C10.8268 2.15925 11.9725 2.14905 13.0984 2.49168C14.6482 2.96367 15.6062 4.0013 15.9456 5.57491C16.3792 7.58249 15.9807 9.40183 14.7616 10.9819Z" fill="#28A1D9" stroke="#28A1D9" stroke-width="0.5"/>
</svg>
