<svg width="188" height="24" viewBox="0 0 188 24" fill="none" xmlns="http://www.w3.org/2000/svg">
<path d="M23.4041 17.0066C23.4041 17.2377 23.3372 17.3553 23.2074 17.3553C22.6527 17.3553 21.9799 17.3318 21.1892 17.2808C20.4299 17.2299 19.8004 17.2064 19.3008 17.2064C18.8012 17.2064 18.1875 17.2299 17.4596 17.2808C16.7004 17.3318 16.0434 17.3553 15.4886 17.3553C15.3391 17.3553 15.2644 17.2377 15.2644 17.0066C15.2644 16.799 15.3313 16.6853 15.4611 16.6697C16.4289 16.5521 17.0859 16.3758 17.436 16.1329C17.7862 15.89 17.9632 15.4356 17.9632 14.7617V14.5619L17.4439 2.47574L11.4719 17.559C11.4208 17.6922 11.3067 17.7588 11.1257 17.7588C10.9369 17.7588 10.8228 17.6922 10.7913 17.559L5.1655 3.07515L4.27246 14.5737C4.25672 14.7147 4.24885 14.8401 4.24885 14.9498C4.24885 15.5061 4.43769 15.9057 4.8193 16.1486C5.19698 16.3915 5.87758 16.5639 6.84931 16.6736C6.9634 16.6893 7.02241 16.8029 7.02241 17.0183C7.02241 17.2456 6.94766 17.3631 6.79817 17.3631C6.36935 17.3631 5.78316 17.3396 5.03961 17.2887C4.34721 17.2377 3.81217 17.2142 3.43842 17.2142C3.02927 17.2142 2.4667 17.2377 1.75855 17.2887C1.07402 17.3396 0.542909 17.3631 0.173101 17.3631C0.0590119 17.3631 0 17.2456 0 17.0144C0 16.8068 0.0747483 16.6932 0.224245 16.6775C1.26679 16.5521 1.98673 16.3562 2.38408 16.0898C2.78536 15.8234 3.01354 15.3141 3.07255 14.5658L4.35901 2.81658C4.36688 2.66771 4.37081 2.5345 4.37081 2.41697C4.37081 1.87632 4.18197 1.48455 3.80036 1.24165C3.41875 0.998754 2.73028 0.818538 1.73101 0.693171C1.61692 0.693171 1.55791 0.579557 1.55791 0.348411C1.55791 0.266138 1.58152 0.187784 1.63266 0.117265C1.6838 0.0467456 1.73101 0.00756836 1.78216 0.00756836C2.08902 0.00756836 2.52177 0.0310747 3.08435 0.0820052C3.56432 0.132936 3.91445 0.156442 4.1387 0.156442C4.42589 0.156442 4.83897 0.132936 5.37795 0.0820052C5.93266 0.0310747 6.36148 0.00756836 6.6644 0.00756836L11.9794 13.8607L17.4675 0.00756836C17.798 0.00756836 18.2268 0.0310747 18.7618 0.0820052C19.2457 0.132936 19.6273 0.156442 19.9067 0.156442C20.2529 0.156442 20.6699 0.132936 21.1577 0.0820052C21.6613 0.0310747 22.094 0.00756836 22.4599 0.00756836C22.6094 0.00756836 22.6842 0.121182 22.6842 0.352328C22.6842 0.583474 22.6173 0.697089 22.4874 0.697089C21.5197 0.81462 20.8627 0.994836 20.5125 1.23382C20.1624 1.47672 19.9853 1.93117 19.9853 2.60502V2.81658L20.5558 14.5658C20.5794 15.1496 20.6699 15.557 20.8233 15.7882C20.9767 16.0193 21.2403 16.2074 21.6101 16.3445C21.9799 16.4816 22.515 16.5913 23.2074 16.6736C23.3372 16.6893 23.4041 16.799 23.4041 17.0066Z" fill="white"/>
<path d="M31.9097 17.6138C31.4691 17.6138 31.0836 17.5041 30.757 17.2847C30.4305 17.0653 30.2063 16.7676 30.0882 16.3915C29.2385 17.2691 28.129 17.7078 26.76 17.7078C26.0479 17.7078 25.4617 17.4845 25.0132 17.0418C24.5608 16.5991 24.3365 16.0467 24.3365 15.3846C24.3365 13.747 26.2643 12.4228 30.1158 11.4081L30.1866 9.53938V9.48061C30.1866 8.90471 30.045 8.45025 29.7656 8.10941C29.4824 7.76856 29.1086 7.6001 28.6405 7.6001C28.1723 7.6001 27.775 7.71372 27.4524 7.94094C27.1258 8.16817 26.9606 8.45417 26.9527 8.79501C26.9449 9.30431 26.8111 9.70392 26.5554 9.99383C26.2957 10.2798 25.9535 10.4248 25.5247 10.4248C25.2729 10.4248 25.0644 10.3503 24.907 10.1976C24.7496 10.0448 24.6709 9.84104 24.6709 9.58639C24.6709 8.97131 25.2257 8.3288 26.3351 7.65103C27.4445 6.97718 28.4752 6.64026 29.4273 6.64026C30.2849 6.64026 30.9773 6.89491 31.5085 7.40813C32.0396 7.91744 32.3071 8.60696 32.3071 9.46886V9.61381L32.13 15.0281V15.1104C32.13 15.9488 32.3976 16.368 32.9405 16.368C33.2041 16.368 33.507 16.2073 33.8571 15.89L33.9397 15.8665C34.0027 15.8665 34.0617 15.9096 34.1168 15.9919C34.1719 16.0741 34.1994 16.1643 34.1994 16.2622C34.1994 16.4933 33.9594 16.7754 33.4795 17.1123C32.9916 17.4493 32.4723 17.6138 31.9097 17.6138ZM30.0882 12.2152C27.7828 12.7441 26.6262 13.6177 26.6262 14.8322C26.6262 15.9684 27.059 16.5364 27.9284 16.5364C28.3454 16.5364 28.7585 16.4307 29.1677 16.2191C29.5729 16.0075 29.8483 15.7451 29.9899 15.4316L30.0882 12.2152Z" fill="white"/>
<path d="M42.8861 7.84327C42.8861 8.16452 42.7877 8.43484 42.5949 8.65815C42.4022 8.88146 42.1661 8.99508 41.8868 8.99508C41.5366 8.99508 41.1944 8.87754 40.8521 8.6464C40.5846 8.46227 40.3485 8.37216 40.1518 8.37216C39.6365 8.37216 39.1054 8.67774 38.5585 9.28107V14.6719C38.5585 15.3653 38.6765 15.8511 38.9165 16.1253C39.1526 16.3996 39.6601 16.5915 40.439 16.6934C40.5649 16.7091 40.6279 16.8188 40.6279 17.0186C40.6279 17.2419 40.5649 17.3555 40.439 17.3555C40.1125 17.3555 39.6522 17.332 39.0581 17.285C38.4011 17.238 37.8818 17.2145 37.4924 17.2145C37.099 17.2145 36.619 17.238 36.0603 17.285C35.5528 17.332 35.1358 17.3555 34.8132 17.3555C34.6873 17.3555 34.6244 17.2419 34.6244 17.0186C34.6244 16.8188 34.6873 16.713 34.8132 16.6934C35.5017 16.6072 35.9463 16.4427 36.139 16.2037C36.3318 15.9647 36.4302 15.4554 36.4302 14.6719V10.2487C36.4302 9.61016 36.3475 9.19096 36.1862 8.99508C36.0249 8.79527 35.663 8.66599 35.0965 8.59939C34.9706 8.59939 34.9076 8.49361 34.9076 8.28205C34.9076 8.08616 34.9706 7.98822 35.0965 7.98822C35.8833 7.78842 36.5285 7.56902 37.036 7.32221C37.5435 7.07931 37.8779 6.86775 38.0353 6.69537C38.1297 6.60135 38.2241 6.55042 38.3185 6.55042C38.5388 6.55042 38.649 6.6131 38.649 6.74238L38.5546 8.25071C39.188 7.65913 39.7348 7.24385 40.1912 7.00487C40.6475 6.76589 41.1 6.64444 41.5524 6.64444C41.9183 6.64444 42.2291 6.76589 42.4926 7.00487C42.7562 7.24385 42.8861 7.52593 42.8861 7.84327Z" fill="white"/>
<path d="M62.4266 17.0186C62.4266 17.2419 62.3637 17.3555 62.2378 17.3555C61.9191 17.3555 61.5336 17.332 61.0733 17.285C60.5658 17.238 60.1173 17.2145 59.7199 17.2145C59.3344 17.2145 58.8859 17.238 58.3823 17.285C57.926 17.332 57.5326 17.3555 57.21 17.3555C57.0841 17.3555 57.0211 17.2419 57.0211 17.0186C57.0211 16.8188 57.0841 16.713 57.21 16.6934C57.7489 16.6307 58.0991 16.474 58.2643 16.2272C58.4295 15.9804 58.5121 15.4593 58.5121 14.6719V10.6719C58.5121 9.77079 58.343 9.11261 58.0007 8.70125C57.6624 8.28989 57.1273 8.08616 56.3995 8.08616C55.4435 8.08616 54.6528 8.41525 54.0272 9.06951V14.6758C54.0272 15.4672 54.1138 15.9843 54.2869 16.2311C54.46 16.4779 54.818 16.6346 55.353 16.6973C55.4789 16.713 55.5419 16.8227 55.5419 17.0225C55.5419 17.2458 55.4789 17.3594 55.3491 17.3594C55.0305 17.3594 54.6606 17.3359 54.2397 17.2889C53.7794 17.2419 53.3584 17.2184 52.9768 17.2184C52.5795 17.2184 52.1467 17.2419 51.6786 17.2889C51.2576 17.3359 50.8878 17.3594 50.5691 17.3594C50.4433 17.3594 50.3764 17.2458 50.3764 17.0225C50.3764 16.8227 50.4393 16.7169 50.5691 16.6973C51.116 16.6346 51.4779 16.4779 51.6471 16.2311C51.8163 15.9843 51.9028 15.4632 51.9028 14.6758V10.6719C51.9028 9.77862 51.7258 9.12436 51.3796 8.70908C51.0294 8.2938 50.4905 8.08616 49.7587 8.08616C49.2984 8.08616 48.8893 8.17627 48.5352 8.34865C48.1811 8.52495 47.8035 8.83445 47.3943 9.28107V14.6719C47.3943 15.4632 47.4809 15.9804 47.65 16.2272C47.8231 16.474 48.1811 16.6307 48.728 16.6934C48.8539 16.7091 48.9168 16.8188 48.9168 17.0186C48.9168 17.2419 48.8539 17.3555 48.728 17.3555C48.4014 17.3555 48.008 17.332 47.5399 17.285C47.0245 17.238 46.576 17.2145 46.1865 17.2145C45.7892 17.2145 45.3407 17.238 44.8332 17.285C44.3808 17.332 43.9913 17.3555 43.6687 17.3555C43.5428 17.3555 43.4799 17.2419 43.4799 17.0186C43.4799 16.8188 43.5428 16.713 43.6687 16.6934C44.3414 16.6072 44.7781 16.4427 44.9709 16.2037C45.1637 15.9647 45.262 15.4554 45.262 14.6719V10.2487C45.262 9.61016 45.1794 9.19096 45.0181 8.99508C44.8568 8.79527 44.5027 8.66599 43.9559 8.59939C43.83 8.59939 43.7671 8.49361 43.7671 8.28205C43.7671 8.08616 43.83 7.98822 43.9559 7.98822C44.7388 7.78842 45.3918 7.56511 45.9111 7.31045C46.4344 7.05972 46.7609 6.85208 46.8947 6.69537C46.9734 6.60135 47.0599 6.55042 47.1543 6.55042C47.3746 6.55042 47.4848 6.6131 47.4848 6.74238L47.3904 8.25071C48.5352 7.18117 49.6014 6.64444 50.5888 6.64444C52.0995 6.64444 53.1263 7.22818 53.6692 8.39175C54.8692 7.22818 56.0455 6.64444 57.1903 6.64444C58.2722 6.64444 59.118 6.95394 59.7199 7.57686C60.3258 8.19978 60.6287 9.03817 60.6287 10.092V14.6679C60.6287 15.4515 60.7271 15.9608 60.9198 16.1998C61.1126 16.4388 61.5493 16.6033 62.222 16.6895C62.3637 16.7091 62.4266 16.8188 62.4266 17.0186Z" fill="white"/>
<path d="M74.4731 12.2509C74.4731 13.8415 73.9577 15.1461 72.9309 16.1726C71.9041 17.199 70.5704 17.7122 68.9377 17.7122C67.3011 17.7122 65.9675 17.199 64.9367 16.1686C63.906 15.1383 63.3906 13.8337 63.3906 12.2509C63.3906 10.6446 63.9099 9.31261 64.9485 8.24699C65.9871 7.18137 67.3169 6.64856 68.9377 6.64856C70.5665 6.64856 71.8962 7.18137 72.9269 8.23916C73.9577 9.30086 74.4731 10.6368 74.4731 12.2509ZM72.0732 12.2274C72.0732 10.7661 71.7939 9.59861 71.2353 8.72496C70.6766 7.8513 69.9095 7.41252 68.9338 7.41252C67.966 7.41252 67.2028 7.8513 66.6402 8.72887C66.0776 9.60644 65.7944 10.7739 65.7944 12.2274C65.7944 13.673 66.0737 14.8209 66.6284 15.6711C67.1831 16.5212 67.9542 16.9483 68.9338 16.9483C69.9173 16.9483 70.6845 16.5251 71.2392 15.6868C71.7939 14.8405 72.0732 13.6887 72.0732 12.2274Z" fill="white"/>
<path d="M88.1992 17.0186C88.1992 17.2419 88.1363 17.3555 88.0104 17.3555C87.6917 17.3555 87.3062 17.332 86.8459 17.285C86.3384 17.238 85.8938 17.2145 85.5044 17.2145C85.111 17.2145 84.6546 17.238 84.1392 17.285C83.6711 17.332 83.2816 17.3555 82.9669 17.3555C82.841 17.3555 82.778 17.2419 82.778 17.0186C82.778 16.8188 82.841 16.713 82.9669 16.6934C83.5137 16.6307 83.8717 16.474 84.0448 16.2272C84.214 15.9804 84.3005 15.4593 84.3005 14.6719V10.6719C84.3005 9.77862 84.1274 9.12436 83.7773 8.70908C83.4271 8.2938 82.8882 8.08616 82.1604 8.08616C81.7001 8.08616 81.2949 8.17627 80.9408 8.34865C80.5867 8.52495 80.209 8.83445 79.8038 9.28107V14.6719C79.8038 15.4632 79.8904 15.9804 80.0595 16.2272C80.2287 16.474 80.5906 16.6307 81.1375 16.6934C81.2634 16.7091 81.3263 16.8188 81.3263 17.0186C81.3263 17.2419 81.2634 17.3555 81.1375 17.3555C80.811 17.3555 80.4175 17.332 79.9494 17.285C79.434 17.238 78.9816 17.2145 78.5921 17.2145C78.2105 17.2145 77.7659 17.238 77.2584 17.285C76.7903 17.332 76.3929 17.3555 76.0703 17.3555C75.9444 17.3555 75.8776 17.2419 75.8776 17.0186C75.8776 16.8188 75.9405 16.713 76.0703 16.6934C76.7509 16.6072 77.1916 16.4388 77.3883 16.1959C77.585 15.953 77.6873 15.4437 77.6873 14.6719V10.2487C77.6873 9.61016 77.6046 9.19096 77.4433 8.99508C77.282 8.79527 76.9162 8.66599 76.3536 8.59939C76.2277 8.59939 76.1648 8.49361 76.1648 8.28205C76.1648 8.08616 76.2277 7.98822 76.3536 7.98822C77.1365 7.78842 77.7935 7.56511 78.3167 7.31045C78.84 7.05972 79.1704 6.85208 79.3042 6.69537C79.3829 6.60135 79.4694 6.55042 79.5638 6.55042C79.7842 6.55042 79.8982 6.6131 79.8982 6.74238L79.8038 8.25071C80.9447 7.18117 82.003 6.64444 82.9865 6.64444C84.0645 6.64444 84.9024 6.95394 85.5083 7.57686C86.1142 8.19978 86.4171 9.03817 86.4171 10.092V14.6679C86.4171 15.4515 86.5154 15.9608 86.7082 16.1998C86.901 16.4388 87.3377 16.6033 88.0104 16.6895C88.1363 16.7091 88.1992 16.8188 88.1992 17.0186Z" fill="white"/>
<path d="M96.0869 0.238981L90.9489 17.5671C90.9096 17.7277 90.6657 17.8061 90.2172 17.8061C89.8238 17.8061 89.6271 17.7277 89.6271 17.5671L94.765 0.238981C94.8044 0.0783545 95.0483 0 95.4968 0C95.8902 0 96.0869 0.0783545 96.0869 0.238981Z" fill="white"/>
<path d="M116.029 17.0069C116.029 17.238 115.962 17.3555 115.832 17.3555C115.278 17.3555 114.617 17.332 113.85 17.2811C113.114 17.2302 112.496 17.2067 111.993 17.2067C111.505 17.2067 110.832 17.2302 109.975 17.2811C109.074 17.332 108.346 17.3555 107.795 17.3555C107.661 17.3555 107.598 17.238 107.598 17.0069C107.598 16.7992 107.657 16.6856 107.771 16.6699C108.885 16.5367 109.443 16.2664 109.443 15.859C109.443 15.6278 109.262 15.3262 108.897 14.9618L103.979 9.92361C103.715 9.6572 103.487 9.48482 103.29 9.39863C103.098 9.31636 102.83 9.27326 102.492 9.27326V14.5622C102.492 15.1342 102.567 15.5416 102.708 15.7767C102.854 16.0157 103.109 16.1998 103.475 16.3369C103.841 16.474 104.368 16.5837 105.057 16.666C105.198 16.6817 105.269 16.7953 105.269 17.0029C105.269 17.2341 105.202 17.3516 105.073 17.3516C104.518 17.3516 103.857 17.3281 103.09 17.2772C102.354 17.2263 101.733 17.2027 101.225 17.2027C100.729 17.2027 100.116 17.2263 99.3838 17.2772C98.6167 17.3281 97.9558 17.3516 97.4011 17.3516C97.2673 17.3516 97.2043 17.2341 97.2043 17.0029C97.2043 16.7953 97.2712 16.6817 97.4011 16.666C98.4003 16.5485 99.0809 16.3604 99.4389 16.1058C99.7969 15.8472 99.9779 15.3301 99.9779 14.5583V2.81293C99.9779 2.22919 99.9032 1.82174 99.7615 1.58276C99.6199 1.34378 99.3642 1.15965 98.9983 1.02253C98.6324 0.885407 98.1013 0.77571 97.4011 0.693438C97.2673 0.693438 97.2043 0.579824 97.2043 0.348678C97.2043 0.117532 97.2712 0.00391773 97.4011 0.00391773C97.9558 0.00391773 98.6167 0.0274241 99.3838 0.0783546C100.112 0.129285 100.725 0.152791 101.225 0.152791C101.733 0.152791 102.354 0.129285 103.09 0.0783546C103.857 0.0274241 104.518 0.00391773 105.073 0.00391773C105.206 0.00391773 105.269 0.117532 105.269 0.348678C105.269 0.579824 105.202 0.693438 105.073 0.693438C104.368 0.77571 103.837 0.885407 103.475 1.02253C103.113 1.15965 102.858 1.3477 102.712 1.58276C102.567 1.82174 102.496 2.22919 102.496 2.81293V8.47405C102.818 8.47405 103.078 8.43095 103.279 8.34868C103.475 8.26641 103.711 8.09011 103.983 7.8237L109.424 2.42116C109.868 1.99412 110.093 1.68462 110.093 1.49265C110.093 1.26543 109.986 1.09696 109.778 0.98335C109.565 0.869736 109.144 0.771793 108.507 0.68952C108.373 0.68952 108.31 0.575906 108.31 0.34476C108.31 0.113614 108.385 0 108.535 0C108.924 0 109.436 0.0235064 110.073 0.0744368C110.75 0.125367 111.312 0.148874 111.757 0.148874C112.201 0.148874 112.697 0.12145 113.244 0.0626837C113.696 0.0195886 114.086 0 114.408 0C114.522 0 114.581 0.113614 114.581 0.34476C114.581 0.575906 114.514 0.68952 114.385 0.68952C113.59 0.791381 112.968 0.952008 112.516 1.17924C112.064 1.40646 111.517 1.82566 110.879 2.43683L105.198 7.85113L112.225 15.048C112.713 15.5612 113.197 15.9295 113.673 16.1567C114.149 16.3839 114.861 16.5563 115.805 16.6699C115.954 16.6895 116.029 16.7992 116.029 17.0069Z" fill="white"/>
<path d="M124.491 10.4408C124.491 10.6681 124.346 10.7817 124.055 10.7817H117.43C117.382 11.2205 117.355 11.6749 117.355 12.145C117.355 13.4536 117.662 14.4565 118.279 15.1578C118.897 15.859 119.774 16.2116 120.911 16.2116C121.482 16.2116 122.06 16.0588 122.638 15.7493C123.221 15.4398 123.685 15.0481 124.043 14.5701L124.102 14.5466C124.173 14.5466 124.243 14.5897 124.314 14.6798C124.381 14.7699 124.417 14.8757 124.417 14.9971C124.417 15.1656 124.157 15.5221 123.642 16.0628C123.126 16.6034 122.564 17.0148 121.962 17.2968C121.356 17.5828 120.722 17.7239 120.062 17.7239C118.61 17.7239 117.39 17.1872 116.399 16.1176C115.407 15.0481 114.912 13.7317 114.912 12.1725C114.912 10.5819 115.396 9.23417 116.367 8.12937C117.339 7.02457 118.57 6.47217 120.062 6.47217C121.313 6.47217 122.363 6.88353 123.213 7.70625C124.066 8.52897 124.491 9.4418 124.491 10.4408ZM122.292 9.36737C122.292 8.76012 122.084 8.25473 121.671 7.85121C121.257 7.44768 120.722 7.24788 120.069 7.24788C119.448 7.24788 118.909 7.51037 118.456 8.03142C118 8.5564 117.693 9.242 117.532 10.0961L120.892 9.99812C121.399 9.99029 121.761 9.94327 121.974 9.85317C122.186 9.76698 122.292 9.60243 122.292 9.36737Z" fill="white"/>
<path d="M136.707 7.19299C136.707 7.40063 136.644 7.51033 136.514 7.526C135.967 7.58477 135.546 7.74539 135.251 8.00788C134.956 8.27429 134.634 8.79926 134.276 9.58281L128.567 22.002C127.93 23.334 127.19 24 126.34 24C125.931 24 125.601 23.8864 125.353 23.667C125.105 23.4437 124.983 23.1577 124.983 22.8091C124.983 22.4447 125.093 22.147 125.314 21.9158C125.534 21.6847 125.829 21.5671 126.199 21.5671C126.372 21.5671 126.573 21.6298 126.797 21.7513C126.942 21.8257 127.045 21.861 127.112 21.861C127.379 21.861 127.694 21.4065 128.056 20.4976L129.566 17.2106L126.746 9.59064C126.447 8.84627 126.148 8.33697 125.845 8.05489C125.542 7.77282 125.133 7.60044 124.617 7.53384C124.488 7.51817 124.425 7.40455 124.425 7.20083C124.425 6.97752 124.484 6.86782 124.606 6.86782C124.92 6.86782 125.302 6.89133 125.75 6.94226C126.254 6.98927 126.698 7.0167 127.08 7.0167C127.454 7.0167 127.918 6.99319 128.477 6.94226C128.988 6.89133 129.409 6.86782 129.74 6.86782C129.869 6.86782 129.932 6.97752 129.932 7.20083C129.932 7.40847 129.869 7.51817 129.74 7.53384C128.898 7.63962 128.477 7.88643 128.477 8.27037C128.477 8.54069 128.587 8.97948 128.807 9.59456L130.755 14.6171L133.064 9.59456C133.265 9.13227 133.363 8.75225 133.363 8.45058C133.363 7.93736 132.973 7.6357 132.194 7.53775C132.065 7.52208 132.002 7.41239 132.002 7.20867C132.002 6.98144 132.065 6.86782 132.194 6.86782C132.533 6.86782 132.91 6.89133 133.327 6.94226C133.737 6.98927 134.106 7.0167 134.437 7.0167C134.602 7.0167 134.874 6.99711 135.247 6.95401C135.763 6.89917 136.18 6.86782 136.494 6.86782C136.64 6.85999 136.707 6.96968 136.707 7.19299Z" fill="white"/>
<path d="M143.961 14.2134C143.961 15.2045 143.576 16.0351 142.801 16.709C142.03 17.3828 141.093 17.7197 140 17.7197C139.614 17.7197 139.016 17.6335 138.214 17.4651C137.608 17.3436 137.199 17.2809 136.982 17.2809C136.919 16.7129 136.77 15.8471 136.538 14.6874C136.538 14.566 136.656 14.5033 136.888 14.5033C137.081 14.5033 137.199 14.5699 137.238 14.6992C137.423 15.2986 137.789 15.8235 138.34 16.2702C138.886 16.7168 139.453 16.9401 140.031 16.9401C140.637 16.9401 141.105 16.7756 141.44 16.4426C141.774 16.1095 141.943 15.6433 141.943 15.0439C141.943 14.6639 141.806 14.327 141.526 14.0331C141.247 13.7432 140.645 13.3789 139.72 12.9479C138.505 12.3877 137.698 11.8588 137.309 11.3652C136.919 10.8715 136.723 10.276 136.723 9.58653C136.723 8.73246 137.088 8.00377 137.824 7.38868C138.556 6.77752 139.425 6.46802 140.425 6.46802C140.842 6.46802 141.432 6.54245 142.191 6.68741C142.608 6.76968 142.883 6.80886 143.013 6.80886C143.037 7.7687 143.088 8.58359 143.171 9.25744C143.171 9.37889 143.053 9.44157 142.821 9.44157C142.62 9.44157 142.506 9.37497 142.482 9.24569C142.392 8.65411 142.171 8.17223 141.817 7.80396C141.463 7.4357 141.042 7.25156 140.551 7.25156C139.296 7.25156 138.67 7.80396 138.67 8.90876C138.67 9.28095 138.82 9.62571 139.115 9.94304C139.41 10.2604 140.059 10.6678 141.054 11.1732C142.242 11.7726 143.025 12.2937 143.403 12.7325C143.773 13.1673 143.961 13.661 143.961 14.2134Z" fill="white"/>
<path d="M152.593 7.66298C152.593 8.10177 152.487 8.32116 152.278 8.32116L148.674 8.22322V14.0685C148.674 15.5925 149.213 16.3564 150.295 16.3564C150.964 16.3564 151.574 16.1997 152.121 15.8824C152.184 15.8824 152.243 15.9255 152.298 16.0117C152.353 16.0978 152.376 16.188 152.376 16.2859C152.376 16.4896 152.077 16.7639 151.476 17.1086C150.878 17.4534 150.201 17.6258 149.453 17.6258C148.537 17.6258 147.805 17.3437 147.258 16.7795C146.711 16.2154 146.436 15.471 146.436 14.5464V14.4367L146.483 8.52096C146.483 8.29374 146.385 8.18012 146.192 8.18012H145.271C145.094 8.18012 145.004 8.07826 145.004 7.87062C145.004 7.71 145.075 7.59246 145.22 7.51019C146.338 6.84026 147.309 5.90001 148.135 4.68551C148.226 4.55623 148.336 4.48962 148.474 4.48962C148.698 4.48962 148.812 4.55623 148.812 4.68551L148.714 7.01264H152.27C152.491 7.0048 152.593 7.2242 152.593 7.66298Z" fill="white"/>
<path d="M164.446 12.1685C164.446 13.7826 163.923 15.1147 162.877 16.1568C161.83 17.1989 160.477 17.72 158.817 17.72C157.156 17.72 155.799 17.195 154.749 16.149C153.698 15.1029 153.175 13.7748 153.175 12.1685C153.175 10.5388 153.702 9.17932 154.761 8.09802C155.819 7.01281 157.168 6.47217 158.817 6.47217C160.473 6.47217 161.822 7.01281 162.873 8.09019C163.919 9.16756 164.446 10.527 164.446 12.1685ZM162.003 12.145C162.003 10.6602 161.72 9.47315 161.15 8.58382C160.583 7.6945 159.8 7.2518 158.809 7.2518C157.825 7.2518 157.046 7.69842 156.476 8.59166C155.905 9.4849 155.618 10.6681 155.618 12.145C155.618 13.6142 155.901 14.7817 156.464 15.6436C157.027 16.5094 157.809 16.9403 158.809 16.9403C159.808 16.9403 160.591 16.5133 161.153 15.6553C161.72 14.8013 162.003 13.6299 162.003 12.145Z" fill="white"/>
<path d="M177.913 17.0145C177.913 17.2417 177.85 17.3553 177.72 17.3553C177.398 17.3553 177.004 17.3318 176.536 17.2809C176.021 17.2338 175.564 17.2064 175.171 17.2064C174.77 17.2064 174.309 17.2299 173.786 17.2809C173.31 17.3279 172.913 17.3553 172.594 17.3553C172.464 17.3553 172.401 17.2417 172.401 17.0145C172.401 16.8107 172.464 16.701 172.594 16.6854C173.149 16.6227 173.515 16.4621 173.688 16.2113C173.861 15.9606 173.947 15.4317 173.947 14.6286V10.562C173.947 9.65304 173.77 8.98703 173.416 8.56391C173.062 8.1408 172.515 7.92924 171.772 7.92924C171.304 7.92924 170.891 8.01935 170.532 8.19565C170.174 8.37586 169.789 8.68928 169.38 9.14374V14.6207C169.38 15.4239 169.466 15.9527 169.639 16.2035C169.813 16.4542 170.178 16.6148 170.733 16.6775C170.863 16.6932 170.926 16.8029 170.926 17.0066C170.926 17.2338 170.863 17.3475 170.733 17.3475C170.403 17.3475 170.001 17.324 169.525 17.273C169.002 17.226 168.542 17.1986 168.148 17.1986C167.763 17.1986 167.31 17.2221 166.795 17.273C166.319 17.32 165.918 17.3475 165.587 17.3475C165.457 17.3475 165.395 17.2338 165.395 17.0066C165.395 16.8029 165.457 16.6932 165.587 16.6775C166.28 16.5874 166.728 16.419 166.929 16.1721C167.129 15.9253 167.232 15.4082 167.232 14.6207V10.131C167.232 9.48458 167.149 9.05755 166.984 8.85382C166.819 8.6501 166.449 8.5169 165.878 8.45422C165.749 8.45422 165.686 8.34844 165.686 8.13296C165.686 7.93316 165.749 7.83521 165.878 7.83521C166.677 7.63149 167.342 7.40426 167.873 7.14569C168.404 6.89104 168.739 6.67948 168.876 6.51886C168.955 6.42091 169.045 6.3739 169.144 6.3739C169.368 6.3739 169.482 6.4405 169.482 6.56979L169.384 8.10554C170.54 7.01641 171.618 6.47576 172.618 6.47576C173.711 6.47576 174.569 6.7931 175.183 7.42385C175.796 8.05852 176.107 8.90867 176.107 9.98213V14.6325C176.107 15.4278 176.206 15.9488 176.402 16.1917C176.599 16.4346 177.04 16.6031 177.728 16.6893C177.85 16.701 177.913 16.8107 177.913 17.0145Z" fill="white"/>
<path d="M188 10.4408C188 10.6681 187.854 10.7817 187.563 10.7817H180.938C180.891 11.2205 180.863 11.6749 180.863 12.145C180.863 13.4536 181.17 14.4565 181.788 15.1578C182.406 15.859 183.283 16.2116 184.42 16.2116C184.99 16.2116 185.569 16.0588 186.147 15.7493C186.729 15.4398 187.193 15.0481 187.551 14.5701L187.61 14.5466C187.681 14.5466 187.752 14.5897 187.823 14.6798C187.89 14.7699 187.925 14.8757 187.925 14.9971C187.925 15.1656 187.665 15.5221 187.15 16.0628C186.635 16.6034 186.072 17.0148 185.47 17.2968C184.864 17.5828 184.231 17.7239 183.57 17.7239C182.118 17.7239 180.899 17.1872 179.907 16.1176C178.916 15.0481 178.42 13.7317 178.42 12.1725C178.42 10.5819 178.904 9.23417 179.876 8.12937C180.848 7.02457 182.079 6.47217 183.57 6.47217C184.821 6.47217 185.872 6.88353 186.721 7.70625C187.575 8.52897 188 9.4418 188 10.4408ZM185.797 9.36737C185.797 8.76012 185.588 8.25473 185.175 7.85121C184.762 7.44768 184.227 7.24788 183.574 7.24788C182.952 7.24788 182.413 7.51037 181.961 8.03142C181.505 8.5564 181.198 9.242 181.036 10.0961L184.396 9.99812C184.904 9.99029 185.266 9.94327 185.478 9.85317C185.691 9.76698 185.797 9.60243 185.797 9.36737Z" fill="white"/>
</svg>
